<svg width="57" height="57" viewBox="0 0 57 57" fill="none" xmlns="http://www.w3.org/2000/svg">
<path d="M16.6989 3.45117C16.6098 3.50683 16.1311 3.5625 15.6413 3.5625C12.3571 3.57363 9.20652 5.6666 7.83718 8.73926C7.08015 10.4648 6.8909 12.9475 7.403 14.4059C7.85945 15.6973 8.88367 17.1111 10.0081 17.9684C11.5667 19.1707 12.9694 19.5937 15.3296 19.5937C16.1979 19.5937 16.9216 19.6271 16.9216 19.6605C16.9216 19.7051 13.7598 24.5145 9.89676 30.3592C6.03367 36.1928 2.73836 41.2916 2.56023 41.6701C0.812379 45.5221 2.20398 50.1199 5.78875 52.3465C6.24519 52.6359 7.01336 52.9922 7.48093 53.148L8.33816 53.4375H19.3151H30.3032L29.4348 52.4578C27.7649 50.5652 26.3956 48.1383 25.7387 45.9117C25.1821 44.0191 25.1042 43.4291 25.1042 40.9131C25.1042 38.8758 25.1376 38.4305 25.3602 37.4285C27.0413 29.9361 32.9194 24.4477 40.4118 23.3789C41.6698 23.2008 44.2637 23.2342 45.5106 23.4457C46.1007 23.5459 47.0581 23.7686 47.6259 23.9578C48.2048 24.1359 48.6835 24.2695 48.7057 24.2473C49.0731 23.8131 54.2276 15.7975 54.4503 15.2965C55.2964 13.4262 55.4522 10.9213 54.8399 8.86172C54.2165 6.77988 52.6245 4.9875 50.5315 4.01894C48.9952 3.29531 50.0417 3.33984 32.6745 3.33984C22.6661 3.33984 16.8102 3.38437 16.6989 3.45117ZM39.254 7.36992C38.0628 9.05097 37.3948 11.2775 37.5729 13.0254C37.6509 13.8492 37.996 15.2297 38.2409 15.7084L38.419 16.0312H26.8075C20.2057 16.0312 14.8509 15.9756 14.3833 15.9199C12.8692 15.7195 11.7003 14.9291 11.0768 13.66C10.7985 13.0811 10.7762 12.9363 10.8208 12.0457C10.8542 11.1996 10.921 10.9436 11.2772 10.2088C12.0454 8.5834 13.604 7.44785 15.3296 7.24746C15.7415 7.19179 21.3413 7.14726 27.7649 7.13613L39.4321 7.125L39.254 7.36992Z" fill="#151515"/>
<path d="M40.1449 26.8969C38.3414 27.2197 36.3152 28.0658 34.623 29.2014C33.5543 29.9139 31.6951 31.773 30.9826 32.8418C29.8137 34.5785 29.001 36.5602 28.667 38.4527C28.4443 39.733 28.4443 42.2045 28.667 43.4848C29.6801 49.2738 34.4449 54.0387 40.234 55.0518C41.5143 55.2744 43.9857 55.2744 45.266 55.0518C49.5967 54.2947 53.5043 51.3668 55.5082 47.3924C56.5658 45.2994 57 43.418 57 40.9688C57 37.9072 56.2318 35.4135 54.5174 32.8418C53.8049 31.773 51.9457 29.9139 50.877 29.2014C49.1402 28.0324 47.1586 27.2197 45.266 26.8857C44.0303 26.6742 41.3584 26.6742 40.1449 26.8969ZM43.7186 34.1777C44.3754 34.5785 44.4645 34.9014 44.509 37.1391L44.5535 39.1652L46.5797 39.2098C48.8174 39.2543 49.1402 39.3434 49.541 40.0002C49.8416 40.4789 49.8416 41.4363 49.5521 41.9039C49.118 42.6053 48.8174 42.6832 46.5797 42.7277L44.5535 42.7723L44.5201 44.7984C44.4756 46.6354 44.4533 46.8469 44.2307 47.2031C43.8967 47.7486 43.4402 47.9824 42.7277 47.9824C42.0152 47.9824 41.5143 47.7152 41.2248 47.1809C41.0689 46.8803 41.0244 46.4461 40.991 44.7984L40.9465 42.7723L38.9203 42.7277C36.6826 42.6832 36.3598 42.5941 35.959 41.9373C35.6584 41.4586 35.6584 40.4789 35.959 40.0002C36.3598 39.3434 36.6826 39.2543 38.9203 39.2098L40.9465 39.1652L40.991 37.1391C41.0244 35.4914 41.0689 35.0572 41.2248 34.7566C41.5143 34.2223 42.0152 33.9551 42.75 33.9551C43.1619 33.9551 43.4848 34.0219 43.7186 34.1777Z" fill="#151515"/>
</svg>
