<svg width="30" height="30" viewBox="0 0 30 30" fill="none" xmlns="http://www.w3.org/2000/svg">
<path d="M24.375 4.6875C24.3742 3.94182 24.0777 3.2269 23.5504 2.69962C23.0231 2.17234 22.3082 1.87578 21.5625 1.875H8.4375C7.69182 1.87578 6.9769 2.17234 6.44962 2.69962C5.92234 3.2269 5.62578 3.94182 5.625 4.6875V25.3125C5.62578 26.0582 5.92234 26.7731 6.44962 27.3004C6.9769 27.8277 7.69182 28.1242 8.4375 28.125H21.5625C22.3082 28.1242 23.0231 27.8277 23.5504 27.3004C24.0777 26.7731 24.3742 26.0582 24.375 25.3125V4.6875ZM9.84375 25.3125C9.56562 25.3125 9.29374 25.23 9.06248 25.0755C8.83122 24.921 8.65098 24.7014 8.54454 24.4444C8.43811 24.1874 8.41026 23.9047 8.46452 23.6319C8.51878 23.3591 8.65271 23.1085 8.84938 22.9119C9.04605 22.7152 9.29662 22.5813 9.5694 22.527C9.84219 22.4728 10.1249 22.5006 10.3819 22.607C10.6389 22.7135 10.8585 22.8937 11.013 23.125C11.1675 23.3562 11.25 23.6281 11.25 23.9062C11.25 24.2792 11.1018 24.6369 10.8381 24.9006C10.5744 25.1643 10.2167 25.3125 9.84375 25.3125ZM9.84375 20.625C9.56562 20.625 9.29374 20.5425 9.06248 20.388C8.83122 20.2335 8.65098 20.0139 8.54454 19.7569C8.43811 19.4999 8.41026 19.2172 8.46452 18.9444C8.51878 18.6716 8.65271 18.421 8.84938 18.2244C9.04605 18.0277 9.29662 17.8938 9.5694 17.8395C9.84219 17.7853 10.1249 17.8131 10.3819 17.9195C10.6389 18.026 10.8585 18.2062 11.013 18.4375C11.1675 18.6687 11.25 18.9406 11.25 19.2188C11.25 19.5917 11.1018 19.9494 10.8381 20.2131C10.5744 20.4768 10.2167 20.625 9.84375 20.625ZM9.84375 15.9375C9.56562 15.9375 9.29374 15.855 9.06248 15.7005C8.83122 15.546 8.65098 15.3264 8.54454 15.0694C8.43811 14.8124 8.41026 14.5297 8.46452 14.2569C8.51878 13.9841 8.65271 13.7335 8.84938 13.5369C9.04605 13.3402 9.29662 13.2063 9.5694 13.152C9.84219 13.0978 10.1249 13.1256 10.3819 13.232C10.6389 13.3385 10.8585 13.5187 11.013 13.75C11.1675 13.9812 11.25 14.2531 11.25 14.5312C11.25 14.9042 11.1018 15.2619 10.8381 15.5256C10.5744 15.7893 10.2167 15.9375 9.84375 15.9375ZM15 25.3125C14.7219 25.3125 14.45 25.23 14.2187 25.0755C13.9875 24.921 13.8072 24.7014 13.7008 24.4444C13.5944 24.1874 13.5665 23.9047 13.6208 23.6319C13.675 23.3591 13.809 23.1085 14.0056 22.9119C14.2023 22.7152 14.4529 22.5813 14.7257 22.527C14.9984 22.4728 15.2812 22.5006 15.5381 22.607C15.7951 22.7135 16.0147 22.8937 16.1693 23.125C16.3238 23.3562 16.4062 23.6281 16.4062 23.9062C16.4062 24.2792 16.2581 24.6369 15.9944 24.9006C15.7306 25.1643 15.373 25.3125 15 25.3125ZM15 20.625C14.7219 20.625 14.45 20.5425 14.2187 20.388C13.9875 20.2335 13.8072 20.0139 13.7008 19.7569C13.5944 19.4999 13.5665 19.2172 13.6208 18.9444C13.675 18.6716 13.809 18.421 14.0056 18.2244C14.2023 18.0277 14.4529 17.8938 14.7257 17.8395C14.9984 17.7853 15.2812 17.8131 15.5381 17.9195C15.7951 18.026 16.0147 18.2062 16.1693 18.4375C16.3238 18.6687 16.4062 18.9406 16.4062 19.2188C16.4062 19.5917 16.2581 19.9494 15.9944 20.2131C15.7306 20.4768 15.373 20.625 15 20.625ZM15 15.9375C14.7219 15.9375 14.45 15.855 14.2187 15.7005C13.9875 15.546 13.8072 15.3264 13.7008 15.0694C13.5944 14.8124 13.5665 14.5297 13.6208 14.2569C13.675 13.9841 13.809 13.7335 14.0056 13.5369C14.2023 13.3402 14.4529 13.2063 14.7257 13.152C14.9984 13.0978 15.2812 13.1256 15.5381 13.232C15.7951 13.3385 16.0147 13.5187 16.1693 13.75C16.3238 13.9812 16.4062 14.2531 16.4062 14.5312C16.4062 14.9042 16.2581 15.2619 15.9944 15.5256C15.7306 15.7893 15.373 15.9375 15 15.9375ZM21.5625 23.9062C21.5625 24.2792 21.4143 24.6369 21.1506 24.9006C20.8869 25.1643 20.5292 25.3125 20.1562 25.3125C19.7833 25.3125 19.4256 25.1643 19.1619 24.9006C18.8982 24.6369 18.75 24.2792 18.75 23.9062V19.2188C18.75 18.8458 18.8982 18.4881 19.1619 18.2244C19.4256 17.9607 19.7833 17.8125 20.1562 17.8125C20.5292 17.8125 20.8869 17.9607 21.1506 18.2244C21.4143 18.4881 21.5625 18.8458 21.5625 19.2188V23.9062ZM20.1562 15.9375C19.8781 15.9375 19.6062 15.855 19.375 15.7005C19.1437 15.546 18.9635 15.3264 18.857 15.0694C18.7506 14.8124 18.7228 14.5297 18.777 14.2569C18.8313 13.9841 18.9652 13.7335 19.1619 13.5369C19.3585 13.3402 19.6091 13.2063 19.8819 13.152C20.1547 13.0978 20.4374 13.1256 20.6944 13.232C20.9514 13.3385 21.171 13.5187 21.3255 13.75C21.48 13.9812 21.5625 14.2531 21.5625 14.5312C21.5625 14.9042 21.4143 15.2619 21.1506 15.5256C20.8869 15.7893 20.5292 15.9375 20.1562 15.9375ZM21.2877 10.0377C21.112 10.2135 20.8736 10.3124 20.625 10.3125H9.375C9.12636 10.3125 8.8879 10.2137 8.71209 10.0379C8.53627 9.8621 8.4375 9.62364 8.4375 9.375V5.625C8.4375 5.37636 8.53627 5.1379 8.71209 4.96209C8.8879 4.78627 9.12636 4.6875 9.375 4.6875H20.625C20.8736 4.6875 21.1121 4.78627 21.2879 4.96209C21.4637 5.1379 21.5625 5.37636 21.5625 5.625V9.375C21.5624 9.6236 21.4635 9.86197 21.2877 10.0377Z" fill="black"/>
</svg>
