<svg width="18" height="18" viewBox="0 0 18 18" fill="none" xmlns="http://www.w3.org/2000/svg">
<g clip-path="url(#clip0_2002_129)">
<path d="M3.55078 2.75312C3.55078 2.7918 4.89375 9.53828 4.93945 9.73164L4.96055 9.8125L10.3816 9.80195C15.7535 9.79141 15.8062 9.78789 16.0137 9.71758C16.7133 9.475 17.1844 8.97578 17.3496 8.29023C17.4129 8.02305 18 3.38594 18 3.14336C18 2.92187 17.898 2.78828 17.7012 2.74258C17.6168 2.72148 14.7199 2.70742 10.5574 2.70742C4.93242 2.70742 3.55078 2.71445 3.55078 2.75312Z" fill="#FFC107"/>
<path d="M0.119531 0.50623C0.0210938 0.604668 0 0.650371 0 0.783964C0 0.95623 0.0984375 1.09686 0.263672 1.16014C0.316406 1.18123 0.791016 1.19529 1.38164 1.19529H2.4082L3.37148 6.01873C3.90234 8.67303 4.37344 10.9547 4.41914 11.0918C4.64414 11.7597 5.17852 12.3469 5.84648 12.6562C6.4582 12.9375 6.01523 12.9164 11.3379 12.9269C15.8168 12.9375 16.091 12.934 16.207 12.8777C16.3547 12.8004 16.4672 12.5965 16.4391 12.4523C16.425 12.3996 16.3793 12.3082 16.3336 12.2519L16.2492 12.1465L11.4715 12.1289C6.76758 12.1078 6.69375 12.1078 6.48633 12.0375C6.02227 11.8758 5.67422 11.6297 5.43867 11.2887C5.2207 10.9722 5.15391 10.7894 5.04492 10.2304C5.01328 10.0652 4.96758 9.87537 4.94297 9.80857C4.90078 9.68904 3.70547 3.68787 3.33633 1.72264C3.23789 1.19178 3.13594 0.706621 3.11133 0.646855C3.08672 0.587089 3.02344 0.50623 2.9707 0.464043C2.87578 0.386699 2.85469 0.386699 1.55742 0.386699H0.239063L0.119531 0.50623Z" fill="#444444"/>
<path d="M6.15593 13.7494C4.66882 14.1361 4.18718 15.9853 5.29109 17.0681C5.73757 17.5076 6.43718 17.708 7.07351 17.5744C7.78718 17.4267 8.42703 16.7869 8.57468 16.0732C8.70828 15.4228 8.50789 14.7302 8.05086 14.2732C7.54461 13.7669 6.83796 13.5701 6.15593 13.7494Z" fill="#444444"/>
<path d="M14.1155 13.7099C13.6092 13.8118 13.1381 14.1177 12.8709 14.515C12.6424 14.8525 12.544 15.1548 12.5229 15.5556C12.4983 16.1673 12.6635 16.5962 13.0994 17.0392C13.5951 17.5454 14.3123 17.7318 15.0119 17.5384C15.353 17.447 15.5885 17.3064 15.8487 17.0533C16.4639 16.4521 16.6186 15.5415 16.2354 14.7646C16.0807 14.4482 15.6694 14.0404 15.353 13.8892C14.9627 13.7029 14.4951 13.6361 14.1155 13.7099Z" fill="#444444"/>
</g>
<defs>
<clipPath id="clip0_2002_129">
<rect width="18" height="18" fill="white"/>
</clipPath>
</defs>
</svg>
