<svg width="24" height="24" viewBox="0 0 24 24" fill="none" xmlns="http://www.w3.org/2000/svg">
<path d="M7.425 9.47579L11.15 3.40079C11.25 3.23412 11.375 3.11312 11.525 3.03779C11.675 2.96246 11.8333 2.92512 12 2.92579C12.1667 2.92646 12.325 2.96412 12.475 3.03879C12.625 3.11346 12.75 3.23412 12.85 3.40079L16.575 9.47579C16.675 9.64246 16.725 9.81746 16.725 10.0008C16.725 10.1841 16.6833 10.3508 16.6 10.5008C16.5167 10.6508 16.4 10.7718 16.25 10.8638C16.1 10.9558 15.925 11.0015 15.725 11.0008H8.275C8.075 11.0008 7.9 10.9551 7.75 10.8638C7.6 10.7725 7.48333 10.6515 7.4 10.5008C7.31667 10.3501 7.275 10.1835 7.275 10.0008C7.275 9.81812 7.325 9.64312 7.425 9.47579ZM17.5 22.0008C16.25 22.0008 15.1877 21.5635 14.313 20.6888C13.4383 19.8141 13.0007 18.7515 13 17.5008C12.9993 16.2501 13.437 15.1878 14.313 14.3138C15.189 13.4398 16.2513 13.0021 17.5 13.0008C18.7487 12.9995 19.8113 13.4371 20.688 14.3138C21.5647 15.1905 22.002 16.2528 22 17.5008C21.998 18.7488 21.5607 19.8115 20.688 20.6888C19.8153 21.5661 18.7527 22.0035 17.5 22.0008ZM3 20.5008V14.5008C3 14.2175 3.096 13.9801 3.288 13.7888C3.48 13.5975 3.71733 13.5015 4 13.5008H10C10.2833 13.5008 10.521 13.5968 10.713 13.7888C10.905 13.9808 11.0007 14.2181 11 14.5008V20.5008C11 20.7841 10.904 21.0218 10.712 21.2138C10.52 21.4058 10.2827 21.5015 10 21.5008H4C3.71667 21.5008 3.47933 21.4048 3.288 21.2128C3.09667 21.0208 3.00067 20.7835 3 20.5008Z" fill="black"/>
</svg>
