<svg width="18" height="18" viewBox="0 0 18 18" fill="none" xmlns="http://www.w3.org/2000/svg">
<g clip-path="url(#clip0_2002_5)">
<path d="M13.1941 9.52669C13.0078 9.56536 12.7968 9.67435 12.6878 9.78685C12.6421 9.83607 12.5859 9.87825 12.5648 9.87825C12.505 9.87825 9.70307 12.7118 9.70307 12.7716C9.70307 12.7997 9.68549 12.8314 9.6644 12.8384C9.64682 12.8454 9.62572 12.8736 9.61869 12.9017C9.61166 12.9298 9.58705 13.0001 9.56244 13.0599C9.53783 13.1161 9.51674 13.306 9.51674 13.4818C9.51322 13.8404 9.57651 14.0583 9.75229 14.2904C9.8894 14.4767 12.5226 17.1204 12.5683 17.1204C12.5894 17.1204 12.6351 17.1591 12.6703 17.2083C12.7054 17.254 12.7476 17.2857 12.7617 17.2786C12.7757 17.2681 12.7968 17.2857 12.8074 17.3138C12.8249 17.356 13.0148 17.4263 13.173 17.4509C13.1976 17.4544 13.2292 17.4685 13.2398 17.4826C13.2749 17.5142 13.7636 17.5142 13.7953 17.479C13.8093 17.465 13.8374 17.4509 13.855 17.4509C13.8726 17.4474 13.8937 17.4404 13.9042 17.4368C13.9148 17.4333 13.9324 17.4263 13.9499 17.4228C14.0308 17.4087 14.2031 17.3173 14.2031 17.2892C14.2031 17.2716 14.2206 17.2681 14.2417 17.2786C14.2804 17.3033 17.1913 14.424 17.1913 14.3607C17.1913 14.3396 17.2195 14.2904 17.2546 14.2517C17.3496 14.1427 17.4093 14.0232 17.4269 13.9072C17.4374 13.8474 17.4585 13.7806 17.4726 13.763C17.5499 13.6716 17.448 12.9368 17.3601 12.9368C17.3425 12.9368 17.3355 12.9228 17.346 12.9087C17.3566 12.8911 17.3214 12.8173 17.2722 12.74C17.1492 12.5536 14.4808 9.87825 14.4175 9.87825C14.3894 9.87825 14.3788 9.86771 14.3894 9.85716C14.4246 9.822 14.1363 9.62864 14.0871 9.65325C14.0624 9.66732 14.0554 9.6638 14.073 9.64974C14.1503 9.56185 13.4753 9.46693 13.1941 9.52669ZM12.5507 9.92396C12.5507 9.92747 11.9531 10.5251 11.2253 11.2493L9.89643 12.5677L11.2148 11.2388C12.4382 10.0083 12.5507 9.89935 12.5507 9.92396ZM11.2499 15.7669C11.9742 16.4911 12.5613 17.0853 12.5507 17.0853C12.5402 17.0853 11.939 16.4911 11.2148 15.7669C10.4906 15.0427 9.90346 14.4486 9.91401 14.4486C9.92455 14.4486 10.5257 15.0427 11.2499 15.7669Z" fill="#40C1C1"/>
<path d="M11.2148 11.2395L9.89648 12.5684L11.2254 11.25C12.4559 10.0266 12.5648 9.91406 12.5402 9.91406C12.5367 9.91406 11.9391 10.5117 11.2148 11.2395Z" fill="#40ECC1"/>
<path d="M11.2147 15.7676C11.939 16.4918 12.5401 17.0859 12.5507 17.0859C12.5612 17.0859 11.9741 16.4918 11.2499 15.7676C10.5257 15.0434 9.92451 14.4492 9.91396 14.4492C9.90341 14.4492 10.4905 15.0434 11.2147 15.7676Z" fill="#40ECC1"/>
<path d="M2.56636 0.966113C1.77183 1.14189 1.13198 1.78525 0.966748 2.5833C0.89292 2.94189 0.89292 6.05674 0.966748 6.41533C1.1355 7.22744 1.77183 7.86377 2.58394 8.03252C2.94253 8.10635 6.05737 8.10635 6.41597 8.03252C7.0312 7.90244 7.57261 7.49111 7.8398 6.94619C8.07534 6.47158 8.08589 6.38369 8.08589 4.49932C8.08589 2.61846 8.07534 2.52705 7.84331 2.05596C7.60425 1.57432 7.19644 1.21924 6.65503 1.02939L6.38081 0.930957L4.58784 0.923925C3.14995 0.916894 2.74917 0.927441 2.56636 0.966113Z" fill="#1596EC"/>
<path d="M11.5664 0.966113C10.9652 1.09971 10.4238 1.51455 10.1602 2.05244C9.92461 2.52705 9.91406 2.61494 9.91406 4.49932C9.91406 6.38721 9.92461 6.46807 10.1602 6.94971C10.4309 7.49814 10.9652 7.90244 11.584 8.03252C11.9426 8.10635 15.0574 8.10635 15.416 8.03252C16.0312 7.90244 16.5727 7.49111 16.8398 6.94619C17.0754 6.47158 17.0859 6.38369 17.0859 4.49932C17.0859 2.61846 17.0754 2.52705 16.8434 2.05596C16.6043 1.57432 16.1965 1.21924 15.6551 1.02939L15.3809 0.930957L13.5879 0.923925C12.15 0.916894 11.7492 0.927441 11.5664 0.966113Z" fill="#1596EC"/>
<path d="M2.56636 9.96611C1.77183 10.1419 1.13198 10.7853 0.966748 11.5833C0.89292 11.9419 0.89292 15.0567 0.966748 15.4153C1.1355 16.2274 1.77183 16.8638 2.58394 17.0325C2.94253 17.1063 6.05737 17.1063 6.41597 17.0325C7.0312 16.9024 7.57261 16.4911 7.8398 15.9462C8.07534 15.4716 8.08589 15.3837 8.08589 13.4993C8.08589 11.6185 8.07534 11.5271 7.84331 11.056C7.60425 10.5743 7.19644 10.2192 6.65503 10.0294L6.38081 9.93096L4.58784 9.92393C3.14995 9.91689 2.74917 9.92744 2.56636 9.96611Z" fill="#1596EC"/>
</g>
<defs>
<clipPath id="clip0_2002_5">
<rect width="18" height="18" fill="white"/>
</clipPath>
</defs>
</svg>
