<svg width="20" height="20" viewBox="0 0 20 20" fill="none" xmlns="http://www.w3.org/2000/svg">
<path fill-rule="evenodd" clip-rule="evenodd" d="M3.51273 3.51283V10.4714H8.05091V3.51283H3.51273ZM2 3.36156C2 2.61004 2.60993 2.0001 3.36145 2.0001H8.20218C8.9537 2.0001 9.56364 2.61004 9.56364 3.36156V10.6227C9.56364 11.3742 8.9537 11.9841 8.20218 11.9841H3.36145C3.00037 11.9841 2.65408 11.8407 2.39876 11.5853C2.14344 11.33 2 10.9837 2 10.6227V3.36156ZM12.4378 2.0001C11.6863 2.0001 11.0764 2.61004 11.0764 3.36156V5.79402C11.0764 6.54555 11.6863 7.15548 12.4378 7.15548H17.2785C18.0301 7.15548 18.64 6.54555 18.64 5.79402V3.36156C18.64 2.61004 18.0301 2.0001 17.2785 2.0001H12.4378ZM12.5891 10.1688V17.1274H17.1273V10.1688H12.5891ZM11.0764 10.0176C11.0764 9.26604 11.6863 8.6561 12.4378 8.6561H17.2785C18.0301 8.6561 18.64 9.26604 18.64 10.0176V17.2787C18.64 18.0302 18.0301 18.6401 17.2785 18.6401H12.4378C12.0767 18.6401 11.7304 18.4967 11.4751 18.2413C11.2198 17.986 11.0764 17.6397 11.0764 17.2787V10.0176ZM3.36145 13.4847C2.60993 13.4847 2 14.0947 2 14.8462V17.2787C2 18.0302 2.60993 18.6401 3.36145 18.6401H8.20218C8.9537 18.6401 9.56364 18.0302 9.56364 17.2787V14.8462C9.56364 14.0947 8.9537 13.4847 8.20218 13.4847H3.36145Z" fill="#8C8C8C"/>
</svg>
