<svg width="18" height="18" viewBox="0 0 18 18" fill="none" xmlns="http://www.w3.org/2000/svg">
<path d="M2.42533 2.05315C1.47829 2.28991 0.867698 3.21618 1.02554 4.16738C1.14599 4.88597 1.59459 5.41764 2.28826 5.6544C2.64132 5.77901 3.53852 5.78732 3.92066 5.67517C5.28307 5.26811 5.71505 3.55679 4.70986 2.55575C4.29865 2.14038 3.87912 1.99084 3.11069 1.99915C2.84901 1.99915 2.54163 2.02407 2.42533 2.05315Z" fill="#F06143"/>
<path d="M2.49173 6.94222C1.74822 7.08759 1.14178 7.73557 1.02132 8.51647C0.867634 9.51751 1.5613 10.4687 2.57065 10.6307C3.92475 10.8508 4.92579 10.3192 5.20824 9.23505C5.47408 8.20909 4.78872 7.13744 3.73783 6.93806C3.47615 6.88822 2.75341 6.89237 2.49173 6.94222Z" fill="#F06143"/>
<path d="M2.30073 12.2056C1.20415 12.5836 0.697401 13.7757 1.18754 14.8183C1.33292 15.1256 1.72752 15.5285 2.03074 15.6698C2.35472 15.8193 2.63302 15.8691 3.14392 15.8691C3.88744 15.8691 4.29865 15.7196 4.71402 15.3042C5.20831 14.8099 5.37861 14.162 5.19585 13.4974C5.01724 12.8619 4.60602 12.4216 3.98712 12.2139C3.64652 12.1017 2.62056 12.0934 2.30073 12.2056Z" fill="#F06143"/>
<path d="M7.49265 2.05349C6.80729 2.22379 6.28808 2.75961 6.12193 3.45743C6.04301 3.78973 6.04301 3.99326 6.12193 4.29648C6.27562 4.88215 6.64115 5.3266 7.16866 5.57997L7.45111 5.71289H11.5217H15.5923L15.8831 5.57167C16.2694 5.3806 16.6142 5.03584 16.7845 4.66616C16.9008 4.42525 16.9215 4.32556 16.934 3.98495C16.9548 3.54466 16.8925 3.26636 16.7138 2.94653C16.5768 2.69316 16.2486 2.36917 15.9994 2.2321C15.5508 1.99118 15.6505 1.99533 11.501 1.99949C8.62661 1.99949 7.65049 2.0161 7.49265 2.05349Z" fill="#FFD064"/>
<path d="M7.46763 6.97252C6.5372 7.21759 5.94323 8.1231 6.09691 9.06599C6.21737 9.79288 6.6452 10.2913 7.38871 10.5821C7.56317 10.6527 7.86223 10.6569 11.3098 10.6693C13.5362 10.6776 15.1561 10.6652 15.3306 10.6402C15.9495 10.553 16.4894 10.1667 16.7677 9.60181C16.9214 9.29444 16.9214 9.28198 16.9214 8.79184C16.9214 8.31417 16.9173 8.27678 16.7885 8.00679C16.531 7.46681 16.0242 7.05975 15.4552 6.94345C15.3056 6.91022 14.0637 6.89776 11.4884 6.90191C8.08653 6.90191 7.71685 6.91022 7.46763 6.97252Z" fill="#FFD064"/>
<path d="M7.40963 12.189C6.50413 12.4797 5.93507 13.3852 6.09706 14.2866C6.23414 15.055 6.8115 15.6656 7.5467 15.8234C7.70039 15.8567 8.90081 15.8691 11.5342 15.8691C15.0607 15.8691 15.3224 15.865 15.5758 15.7944C15.9247 15.6988 16.1988 15.5368 16.4314 15.2959C16.8136 14.893 16.959 14.486 16.934 13.8795C16.9216 13.5389 16.9008 13.4392 16.7845 13.1983C16.6142 12.8286 16.2695 12.4839 15.8832 12.2928L15.5924 12.1516L11.5841 12.1433C8.42313 12.1391 7.54255 12.1474 7.40963 12.189Z" fill="#FFD064"/>
</svg>
