<svg width="20" height="20" viewBox="0 0 20 20" fill="none" xmlns="http://www.w3.org/2000/svg">
<g clip-path="url(#clip0_2665_5420)">
<path d="M5.42578 3.04688C2.30469 4.60938 0.960938 5.30078 0.902344 5.375L0.820312 5.48047V10V14.5195L0.902344 14.625C1.01562 14.7656 9.82812 19.1797 10 19.1797C10.1719 19.1797 18.9844 14.7656 19.0977 14.625L19.1797 14.5195V10V5.48047L19.0977 5.375C18.9766 5.22266 10.168 0.820312 9.99219 0.824219C9.90234 0.824219 8.46484 1.52344 5.42578 3.04688ZM13.8867 3.67969C16.0039 4.73828 17.7344 5.61328 17.7344 5.625C17.7344 5.63672 17.3789 5.82422 16.9414 6.03906L16.1523 6.43359L12.2656 4.49219L8.37891 2.55078L9.16016 2.15625C9.58984 1.9375 9.96484 1.76172 9.98828 1.76172C10.0156 1.75781 11.7695 2.625 13.8867 3.67969ZM11.2812 4.99219L15.1562 6.93359L13.9844 7.51953L12.8125 8.10547L8.94531 6.17188C6.81641 5.10938 5.07812 4.23047 5.07812 4.21875C5.07812 4.19922 7.34375 3.05078 7.38281 3.05078C7.39453 3.05078 9.14844 3.92578 11.2812 4.99219ZM7.94922 6.64844C10.0664 7.70703 11.7969 8.58203 11.7969 8.59375C11.7969 8.60547 11.3906 8.81641 10.8984 9.0625L10 9.51172L6.13281 7.57812C4.00391 6.51562 2.26562 5.63672 2.26562 5.625C2.26562 5.59766 3.99219 4.73047 4.05078 4.73047C4.07812 4.72656 5.83203 5.59375 7.94922 6.64844ZM9.57031 14.1602V18.0469L5.625 16.0742L1.67969 14.1016V10.2148V6.32812L5.625 8.30078L9.57031 10.2734V14.1602ZM18.3203 10.2148V14.1016L14.375 16.0742L10.4297 18.0469V14.1602V10.2734L11.3281 9.82422C11.8203 9.57812 12.2344 9.375 12.2461 9.375C12.2578 9.375 12.2656 10.2656 12.2656 11.3555C12.2656 13.2266 12.2695 13.3477 12.3398 13.4609C12.4922 13.7109 12.8359 13.7344 13.0352 13.5039C13.0938 13.4336 13.4922 12.875 13.918 12.2578L14.6953 11.1367L15.168 11.4805C15.8047 11.9414 15.8945 11.9922 16.0625 11.9922C16.1719 11.9922 16.2461 11.9609 16.3359 11.8789L16.4648 11.7656L16.4766 9.50391L16.4844 7.24609L17.3945 6.78906C17.8906 6.53906 18.3047 6.33203 18.3125 6.33203C18.3164 6.32812 18.3203 8.07812 18.3203 10.2148ZM15.625 9.20312C15.625 10.3945 15.6133 10.7031 15.5781 10.6797C15.5508 10.6641 15.3594 10.5312 15.1562 10.3867C14.7383 10.0898 14.6328 10.0508 14.4336 10.1172C14.3164 10.1562 14.2344 10.2539 13.8984 10.7344C13.6797 11.0508 13.418 11.4297 13.3125 11.5781L13.125 11.8477V10.3867V8.92578L14.3477 8.3125C15.0156 7.97656 15.5781 7.69922 15.5977 7.69922C15.6133 7.69531 15.625 8.375 15.625 9.20312Z" fill="#8C8C8C"/>
</g>
<defs>
<clipPath id="clip0_2665_5420">
<rect width="20" height="20" fill="white"/>
</clipPath>
</defs>
</svg>
