<svg width="20" height="20" viewBox="0 0 20 20" fill="none" xmlns="http://www.w3.org/2000/svg">
<path fill-rule="evenodd" clip-rule="evenodd" d="M6.04176 4.55084V5.73418L4.6301 5.84918C4.14512 5.88821 3.68724 6.08872 3.32965 6.41866C2.97207 6.74859 2.73544 7.1889 2.6576 7.66917C2.62343 7.88417 2.59093 8.09917 2.5626 8.31501C2.55585 8.36719 2.56586 8.42017 2.59117 8.4663C2.61648 8.51243 2.65579 8.54933 2.70343 8.57167L2.7676 8.60167C7.29176 10.7433 12.7093 10.7433 17.2326 8.60167L17.2968 8.57167C17.3442 8.5492 17.3834 8.51225 17.4085 8.46613C17.4337 8.42001 17.4436 8.3671 17.4368 8.31501C17.4085 8.09928 17.3771 7.88398 17.3426 7.66917C17.2648 7.1889 17.0281 6.74859 16.6705 6.41866C16.313 6.08872 15.8551 5.88821 15.3701 5.84918L13.9584 5.73501V4.55168C13.9585 4.20239 13.8332 3.86467 13.6054 3.59994C13.3775 3.33522 13.0622 3.16107 12.7168 3.10918L11.7001 2.95668C10.5731 2.78759 9.42712 2.78759 8.3001 2.95668L7.28343 3.10918C6.93816 3.16105 6.62295 3.33507 6.3951 3.59963C6.16725 3.86418 6.04188 4.2017 6.04176 4.55084ZM11.5143 4.19251C10.5104 4.04195 9.48976 4.04195 8.48593 4.19251L7.46926 4.34501C7.41994 4.35239 7.3749 4.37722 7.34232 4.41499C7.30975 4.45276 7.29181 4.50097 7.29176 4.55084V5.64668C9.09584 5.54333 10.9044 5.54333 12.7084 5.64668V4.55084C12.7084 4.50097 12.6904 4.45276 12.6579 4.41499C12.6253 4.37722 12.5803 4.35239 12.5309 4.34501L11.5143 4.19251Z" fill="#8C8C8C"/>
<path d="M17.5986 10.0583C17.597 10.0314 17.5888 10.0053 17.5748 9.98216C17.5608 9.95908 17.5414 9.93974 17.5183 9.9258C17.4952 9.91186 17.4691 9.90375 17.4421 9.90216C17.4152 9.90057 17.3882 9.90555 17.3636 9.91666C12.7211 11.9725 7.27946 11.9725 2.63696 9.91666C2.61237 9.90555 2.58544 9.90057 2.55849 9.90216C2.53155 9.90375 2.50539 9.91186 2.48227 9.9258C2.45915 9.93974 2.43977 9.95908 2.42578 9.98216C2.41179 10.0053 2.40362 10.0314 2.40196 10.0583C2.3168 11.6537 2.40257 13.2537 2.6578 14.8308C2.73564 15.3111 2.97227 15.7514 3.32986 16.0813C3.68744 16.4113 4.14532 16.6118 4.6303 16.6508L6.1903 16.7775C8.72613 16.9817 11.2736 16.9817 13.8103 16.7775L15.3703 16.6517C15.8554 16.6126 16.3134 16.412 16.671 16.0819C17.0286 15.7518 17.2651 15.3113 17.3428 14.8308C17.5978 13.2517 17.6845 11.6517 17.5986 10.0592V10.0583Z" fill="#8C8C8C"/>
</svg>
