<svg width="47" height="47" viewBox="0 0 47 47" fill="none" xmlns="http://www.w3.org/2000/svg">
<path d="M34.4514 24.8764C33.9649 24.9774 33.4141 25.262 33.1296 25.5557C33.0102 25.6843 32.8633 25.7944 32.8083 25.7944C32.6522 25.7944 25.336 33.1932 25.336 33.3493C25.336 33.4227 25.2901 33.5054 25.235 33.5237C25.1891 33.5421 25.1341 33.6155 25.1157 33.6889C25.0973 33.7624 25.0331 33.946 24.9688 34.102C24.9046 34.2489 24.8495 34.7446 24.8495 35.2036C24.8403 36.1399 25.0055 36.7091 25.4645 37.3149C25.8225 37.8014 32.6981 44.7046 32.8174 44.7046C32.8725 44.7046 32.9919 44.8055 33.0837 44.9341C33.1755 45.0534 33.2856 45.136 33.3223 45.1177C33.3591 45.0901 33.4141 45.136 33.4417 45.2095C33.4876 45.3196 33.9833 45.5032 34.3964 45.5675C34.4606 45.5766 34.5432 45.6134 34.5708 45.6501C34.6626 45.7327 35.9385 45.7327 36.0212 45.6409C36.0579 45.6042 36.1313 45.5675 36.1772 45.5675C36.2231 45.5583 36.2782 45.5399 36.3057 45.5307C36.3333 45.5216 36.3792 45.5032 36.4251 45.494C36.6362 45.4573 37.086 45.2186 37.086 45.1452C37.086 45.0993 37.1319 45.0901 37.187 45.1177C37.288 45.1819 44.8887 37.6637 44.8887 37.4985C44.8887 37.4434 44.9622 37.3149 45.054 37.2139C45.3018 36.9294 45.4579 36.6173 45.5038 36.3143C45.5313 36.1583 45.5864 35.9839 45.6231 35.938C45.8251 35.6993 45.5589 33.7807 45.3294 33.7807C45.2835 33.7807 45.2651 33.744 45.2926 33.7073C45.3202 33.6614 45.2284 33.4686 45.0999 33.2667C44.7786 32.7802 37.8112 25.7944 37.646 25.7944C37.5725 25.7944 37.545 25.7669 37.5725 25.7393C37.6643 25.6475 36.9116 25.1427 36.7831 25.2069C36.7188 25.2436 36.7005 25.2345 36.7464 25.1977C36.9483 24.9682 35.1858 24.7204 34.4514 24.8764ZM32.7716 25.9137C32.7716 25.9229 31.211 27.4835 29.3108 29.3745L25.8409 32.8169L29.2833 29.347C32.4778 26.1341 32.7716 25.8495 32.7716 25.9137ZM29.3751 41.1704C31.2661 43.0614 32.7991 44.6128 32.7716 44.6128C32.744 44.6128 31.1743 43.0614 29.2833 41.1704C27.3923 39.2794 25.8592 37.728 25.8868 37.728C25.9143 37.728 27.4841 39.2794 29.3751 41.1704Z" fill="#40C1C1"/>
<path d="M29.2832 29.3465L25.8408 32.8164L29.3107 29.374C32.5236 26.1795 32.8082 25.8857 32.7439 25.8857C32.7348 25.8857 31.1742 27.4463 29.2832 29.3465Z" fill="#40ECC1"/>
<path d="M29.2833 41.1709C31.1743 43.0619 32.7441 44.6133 32.7716 44.6133C32.7991 44.6133 31.2661 43.0619 29.3751 41.1709C27.4841 39.2799 25.9144 37.7285 25.8868 37.7285C25.8593 37.7285 27.3923 39.2799 29.2833 41.1709Z" fill="#40ECC1"/>
<path d="M6.70122 2.52534C4.62661 2.98433 2.95591 4.66421 2.52446 6.748C2.33169 7.68433 2.33169 15.8175 2.52446 16.7539C2.96509 18.8744 4.62661 20.5359 6.74712 20.9765C7.68345 21.1693 15.8167 21.1693 16.753 20.9765C18.3594 20.6369 19.7731 19.5628 20.4708 18.14C21.0858 16.9007 21.1133 16.6712 21.1133 11.7509C21.1133 6.83979 21.0858 6.60112 20.4799 5.37104C19.8557 4.11343 18.7909 3.18628 17.3772 2.69058L16.6612 2.43354L11.9795 2.41518C8.22505 2.39683 7.17856 2.42436 6.70122 2.52534Z" fill="#1596EC"/>
<path d="M30.2012 2.52534C28.6314 2.87417 27.2178 3.95737 26.5293 5.36186C25.9143 6.60112 25.8867 6.83061 25.8867 11.7509C25.8867 16.6804 25.9143 16.8916 26.5293 18.1492C27.2361 19.5812 28.6314 20.6369 30.2471 20.9765C31.1834 21.1693 39.3166 21.1693 40.2529 20.9765C41.8594 20.6369 43.273 19.5628 43.9707 18.14C44.5857 16.9007 44.6133 16.6712 44.6133 11.7509C44.6133 6.83979 44.5857 6.60112 43.9799 5.37104C43.3557 4.11343 42.2908 3.18628 40.8771 2.69058L40.1611 2.43354L35.4795 2.41518C31.725 2.39683 30.6785 2.42436 30.2012 2.52534Z" fill="#1596EC"/>
<path d="M6.70122 26.0253C4.62661 26.4843 2.95591 28.1642 2.52446 30.248C2.33169 31.1843 2.33169 39.3175 2.52446 40.2539C2.96509 42.3744 4.62661 44.0359 6.74712 44.4765C7.68345 44.6693 15.8167 44.6693 16.753 44.4765C18.3594 44.1369 19.7731 43.0628 20.4708 41.64C21.0858 40.4007 21.1133 40.1712 21.1133 35.2509C21.1133 30.3398 21.0858 30.1011 20.4799 28.871C19.8557 27.6134 18.7909 26.6863 17.3772 26.1906L16.6612 25.9335L11.9795 25.9152C8.22505 25.8968 7.17856 25.9244 6.70122 26.0253Z" fill="#1596EC"/>
</svg>
