<svg width="20" height="20" viewBox="0 0 20 20" fill="none" xmlns="http://www.w3.org/2000/svg">
<path d="M10.164 1.17578C10.0624 1.22656 9.94911 1.32812 9.89051 1.41797L9.78504 1.57422L9.77333 2.78906C9.7577 4.11328 9.76942 4.21094 9.96473 4.43359C10.1718 4.66797 10.3046 4.6875 11.8046 4.6875H13.1249V4.88281V5.07812H8.11708C3.16395 5.07812 3.10145 5.08203 2.92958 5.16016C2.67958 5.27344 2.47254 5.48828 2.3827 5.73047C2.30458 5.93359 2.30458 6.03906 2.30458 10.1914V14.4414L2.10536 14.4648C1.83192 14.5 1.64442 14.6055 1.50379 14.8008L1.38661 14.9688L1.37489 16.5938C1.36708 17.6836 1.37489 18.2695 1.40614 18.3672C1.46083 18.5625 1.62489 18.7461 1.81629 18.832C1.96473 18.9023 2.29676 18.9062 9.99989 18.9062C17.703 18.9062 18.035 18.9023 18.1835 18.832C18.3749 18.7461 18.5389 18.5625 18.5936 18.3672C18.6249 18.2695 18.6327 17.6836 18.6249 16.5938L18.6132 14.9688L18.496 14.8008C18.3554 14.6055 18.1679 14.5 17.8944 14.4648L17.6952 14.4414V10.2148C17.6952 5.52344 17.7069 5.75 17.4335 5.43359C17.3554 5.33984 17.1991 5.22266 17.0936 5.17188C16.8983 5.08203 16.8749 5.07812 15.6171 5.07812H14.3358V4.88281V4.6875H15.6366C16.3866 4.6875 17.0077 4.66797 17.1093 4.64453C17.3397 4.59375 17.5311 4.44141 17.621 4.24219C17.6874 4.09766 17.6952 3.96875 17.6952 2.89844C17.6952 1.91797 17.6835 1.69141 17.6366 1.57031C17.5546 1.37891 17.4335 1.25391 17.246 1.16797C17.0975 1.09766 16.914 1.09375 13.7108 1.09375C10.3358 1.09375 10.3319 1.09375 10.164 1.17578ZM16.4843 2.89062V3.47656H13.7304H10.9765V2.89062V2.30469H13.7304H16.4843V2.89062ZM16.4843 10.3711V14.4531H9.99989H3.51551V10.3711V6.28906H9.99989H16.4843V10.3711ZM17.4218 16.6797V17.6953H9.99989H2.57801V16.6797V15.6641H9.99989H17.4218V16.6797Z" fill="#8C8C8C"/>
<path d="M4.64844 7.8125V8.39844H5.29297H5.9375V7.8125V7.22656H5.29297H4.64844V7.8125Z" fill="#8C8C8C"/>
<path d="M7.14844 7.8125V8.39844H7.79297H8.4375V7.8125V7.22656H7.79297H7.14844V7.8125Z" fill="#8C8C8C"/>
<path d="M9.80469 9.10156V10.9766H12.6172H15.4297V9.10156V7.22656H12.6172H9.80469V9.10156ZM14.2188 9.10156V9.80469H12.5977H10.9766V9.10156V8.39844H12.5977H14.2188V9.10156Z" fill="#8C8C8C"/>
<path d="M4.64844 10.3906V10.9766H5.29297H5.9375V10.3906V9.80469H5.29297H4.64844V10.3906Z" fill="#8C8C8C"/>
<path d="M7.14844 10.3906V10.9766H7.79297H8.4375V10.3906V9.80469H7.79297H7.14844V10.3906Z" fill="#8C8C8C"/>
<path d="M4.64844 12.9102V13.5156H5.29297H5.9375V12.9102V12.3047H5.29297H4.64844V12.9102Z" fill="#8C8C8C"/>
<path d="M7.14844 12.9102V13.5156H7.79297H8.4375V12.9102V12.3047H7.79297H7.14844V12.9102Z" fill="#8C8C8C"/>
<path d="M9.76562 12.9102V13.5156H12.5977H15.4297V12.9102V12.3047H12.5977H9.76562V12.9102Z" fill="#8C8C8C"/>
<path d="M8.24219 16.6602V17.2656H10H11.7578V16.6602V16.0547H10H8.24219V16.6602Z" fill="#8C8C8C"/>
</svg>
