<svg width="16" height="16" viewBox="0 0 16 16" fill="none" xmlns="http://www.w3.org/2000/svg">
<g clip-path="url(#clip0_1836_1139)">
<path d="M11.1741 6.99813C11.5026 6.99904 11.828 6.93476 12.1315 6.80902C12.435 6.68329 12.7106 6.49859 12.9422 6.26563L15.3484 3.86094C15.5388 3.67063 15.5563 3.36095 15.375 3.16126C15.3295 3.11109 15.2743 3.07069 15.2127 3.0425C15.1511 3.01432 15.0844 2.99895 15.0167 2.99731C14.949 2.99567 14.8817 3.00781 14.8188 3.03298C14.7559 3.05816 14.6988 3.09584 14.6509 3.14376L12.5063 5.28688C12.4342 5.35881 12.3366 5.39921 12.2349 5.39921C12.1331 5.39921 12.0355 5.35881 11.9634 5.28688C11.8138 5.13751 11.8219 4.88501 11.9713 4.73563L14.1066 2.60032C14.1544 2.55245 14.1921 2.49536 14.2172 2.43252C14.2424 2.36967 14.2545 2.30237 14.2529 2.2347C14.2512 2.16702 14.2359 2.10039 14.2077 2.03883C14.1796 1.97727 14.1392 1.92207 14.0891 1.87657C13.9986 1.7945 13.8806 1.74934 13.7584 1.75001C13.6899 1.75004 13.622 1.76358 13.5587 1.78985C13.4954 1.81612 13.4378 1.85462 13.3894 1.90313L11.2559 4.03626C11.1839 4.10818 11.0863 4.14858 10.9845 4.14858C10.8828 4.14858 10.7851 4.10818 10.7131 4.03626C10.5638 3.88688 10.5716 3.63438 10.7209 3.48501L12.8563 1.35032C12.9041 1.30245 12.9418 1.24536 12.9669 1.18252C12.9921 1.11967 13.0042 1.05237 13.0025 0.984696C13.0009 0.917024 12.9855 0.850389 12.9574 0.78883C12.9292 0.72727 12.8889 0.672068 12.8388 0.62657C12.7483 0.544495 12.6303 0.499335 12.5081 0.500007C12.3697 0.500171 12.237 0.555239 12.1391 0.653132L9.73439 3.05782C9.50142 3.28951 9.31672 3.56511 9.19098 3.86866C9.06525 4.17221 9.00098 4.49769 9.00189 4.82626V5.08345C9.00194 5.1492 8.98902 5.21432 8.96387 5.27507C8.93872 5.33583 8.90183 5.39103 8.85532 5.43751L7.74251 6.55063C7.7309 6.56225 7.71712 6.57147 7.70194 6.57776C7.68677 6.58406 7.6705 6.58729 7.65407 6.58729C7.63765 6.58729 7.62138 6.58406 7.60621 6.57776C7.59103 6.57147 7.57724 6.56225 7.56564 6.55063L2.15064 1.13532C2.05718 1.04175 1.93046 0.989026 1.79821 0.988674C1.66596 0.988323 1.53897 1.04038 1.44501 1.13344C0.971573 1.60251 0.718761 2.26469 0.718761 3.04813C0.715636 4.34188 1.39564 5.82938 2.49345 6.92563L5.16376 9.59595C5.54331 9.97468 6.05757 10.1874 6.59376 10.1875C6.7647 10.1876 6.93494 10.1657 7.10032 10.1225C7.14185 10.1116 7.18458 10.1061 7.22751 10.1059C7.35303 10.106 7.47391 10.1534 7.56595 10.2388L7.92189 10.5675C8.01369 10.6613 8.06526 10.7872 8.06564 10.9184V11.0916C8.06472 11.4851 8.21939 11.8631 8.49595 12.1431L11.31 15.0047L11.3128 15.0078C11.6252 15.3201 12.0488 15.4955 12.4904 15.4955C12.9321 15.4955 13.3557 15.32 13.668 15.0077C13.9803 14.6953 14.1557 14.2717 14.1557 13.8301C14.1556 13.3884 13.9802 12.9648 13.6678 12.6525L9.4497 8.43438C9.43808 8.42277 9.42886 8.40899 9.42257 8.39381C9.41627 8.37864 9.41304 8.36237 9.41304 8.34595C9.41304 8.32952 9.41627 8.31325 9.42257 8.29808C9.42886 8.2829 9.43808 8.26912 9.4497 8.25751L10.5625 7.1447C10.609 7.09822 10.6641 7.06136 10.7248 7.03621C10.7855 7.01106 10.8506 6.99812 10.9163 6.99813H11.1741Z" fill="black"/>
<path d="M6.59547 11.1858C5.79495 11.1842 5.02736 10.867 4.45922 10.303L4.02609 9.86988C3.97923 9.82313 3.91573 9.79688 3.84953 9.79688C3.78333 9.79688 3.71983 9.82313 3.67297 9.86988L1.01672 12.5124C0.543281 12.9858 0.374218 13.6827 0.608593 14.3652C0.62174 14.4036 0.637291 14.4412 0.655156 14.4777C0.970468 15.1233 1.58234 15.4983 2.25172 15.4983C2.48192 15.4989 2.70994 15.4538 2.92258 15.3656C3.13521 15.2774 3.32824 15.1479 3.49047 14.9846L7.03297 11.4252C7.04788 11.41 7.0593 11.3917 7.06642 11.3716C7.07354 11.3515 7.0762 11.3302 7.07422 11.3089V11.3008C7.07283 11.2813 7.06751 11.2623 7.05858 11.245C7.04964 11.2276 7.03729 11.2122 7.02225 11.1997C7.00721 11.1873 6.9898 11.178 6.97107 11.1724C6.95235 11.1668 6.93269 11.1651 6.91328 11.1674C6.80774 11.1791 6.70166 11.1852 6.59547 11.1858Z" fill="black"/>
</g>
<defs>
<clipPath id="clip0_1836_1139">
<rect width="16" height="16" fill="white"/>
</clipPath>
</defs>
</svg>
