<svg width="20" height="20" viewBox="0 0 20 20" fill="none" xmlns="http://www.w3.org/2000/svg">
<path d="M11.683 11.6417L13.0997 9.19166C13.0997 9.19166 13.0247 9.12499 12.908 9.04166L11.683 8.07499L11.6747 8.09166C11.6997 7.89166 11.7163 7.69999 11.7163 7.49999C11.7163 7.29999 11.6997 7.10832 11.6663 6.92499L11.6747 6.93332L13.0997 5.81666L11.683 3.35832L10.008 4.03332V4.04166C9.69968 3.80832 9.36634 3.60832 9.00801 3.45832H9.01634L8.76634 1.66666H5.92467L5.66634 3.45832H5.67467C5.31634 3.60832 4.98301 3.80832 4.67467 4.04166V4.03332L2.99967 3.35832L1.58301 5.81666L2.99967 6.93332L3.00801 6.92499C2.98301 7.10832 2.96634 7.29999 2.96634 7.49999C2.96634 7.69999 2.98301 7.89166 3.00801 8.09166L2.99967 8.07499L1.77467 9.04166C1.66634 9.12499 1.58301 9.19166 1.58301 9.19166L2.99967 11.6417L4.68301 10.975L4.66634 10.95C4.97467 11.1917 5.30801 11.3917 5.67467 11.5417H5.66634L5.92467 13.3333H8.75801C8.75801 13.3333 8.77468 13.225 8.79134 13.0833L9.01634 11.5417H9.00801C9.37468 11.3917 9.70801 11.1917 10.0163 10.95L9.99968 10.975L11.683 11.6417ZM7.34134 9.16666C6.42467 9.16666 5.67467 8.41666 5.67467 7.49999C5.67467 6.58332 6.42467 5.83332 7.34134 5.83332C8.25801 5.83332 9.00801 6.58332 9.00801 7.49999C9.00801 8.41666 8.25801 9.16666 7.34134 9.16666ZM17.483 14.95L17.4747 14.9583C17.4913 14.8333 17.4997 14.7083 17.4997 14.5833C17.4997 14.4583 17.4913 14.3333 17.4663 14.2167L17.4747 14.225L18.3913 13.5083L17.483 11.925L16.408 12.3583V12.3667C16.208 12.2167 15.9997 12.0917 15.7663 11.9917H15.7747L15.608 10.8333H13.783L13.6163 11.9833H13.6247C13.3913 12.0833 13.183 12.2083 12.983 12.3583V12.35L11.908 11.9167L10.9997 13.5L11.908 14.2167L11.9163 14.2083C11.8997 14.325 11.8913 14.45 11.8913 14.575C11.8913 14.7 11.8997 14.825 11.9163 14.9583L11.908 14.95L11.1247 15.575C11.058 15.625 10.9997 15.675 10.9997 15.675L11.908 17.25L12.9913 16.825L12.983 16.8083C13.183 16.9667 13.3997 17.0917 13.633 17.1917H13.6247L13.7913 18.3417H15.6163C15.6163 18.3417 15.6247 18.275 15.6413 18.1833L15.783 17.1917H15.7747C16.008 17.0917 16.2247 16.9667 16.4247 16.8083L16.4163 16.825L17.4997 17.25L18.408 15.675C18.408 15.675 18.358 15.6333 18.283 15.575L17.483 14.95ZM14.6913 15.6583C14.0997 15.6583 13.6163 15.175 13.6163 14.5833C13.6163 13.9917 14.0997 13.5083 14.6913 13.5083C15.283 13.5083 15.7663 13.9917 15.7663 14.5833C15.7663 15.175 15.283 15.6583 14.6913 15.6583Z" fill="#8C8C8C"/>
</svg>
