<svg width="35" height="18" viewBox="0 0 35 18" fill="none" xmlns="http://www.w3.org/2000/svg">
<path fill-rule="evenodd" clip-rule="evenodd" d="M27.9062 12.8708L32.0835 8.95128L30.1048 4.89648L27.9062 12.8708Z" fill="#097939"/>
<path fill-rule="evenodd" clip-rule="evenodd" d="M26.499 12.8708L30.6763 8.95128L28.6976 4.89648L26.499 12.8708Z" fill="#ED752E"/>
<path fill-rule="evenodd" clip-rule="evenodd" d="M6.53625 4.94072L4.7775 11.3832L11.0212 11.4282L12.7362 4.94072H14.3191L12.2628 12.4827C12.1841 12.7707 11.8842 13.0047 11.5935 13.0047H3.59041C3.10508 13.0047 2.8175 12.6147 2.94875 12.1347L4.90991 4.94072H6.53625ZM25.8393 4.89572H27.4222L25.2236 13.0047H23.5961L25.8393 4.89572ZM14.4952 8.27432L22.4099 8.22932L22.9378 6.51722H14.8907L15.3743 4.94042L23.9493 4.85942C24.4831 4.85432 24.801 5.27942 24.6604 5.80952L23.8525 8.84672C23.7116 9.37652 23.1642 9.80582 22.6304 9.80582H15.5505L14.7157 13.1397H13.1757L14.4952 8.27432Z" fill="#747474"/>
</svg>
