<svg width="60" height="60" viewBox="0 0 60 60" fill="none" xmlns="http://www.w3.org/2000/svg">
<path d="M28.1478 0.165974C25.6166 0.787068 23.4017 3.06051 22.7806 5.68551C22.558 6.65816 22.6166 8.63863 22.8978 9.52926C23.6009 11.7558 25.3939 13.6191 27.5384 14.3808C28.6986 14.7793 30.4916 14.8847 31.6986 14.6035C34.2416 14.0058 36.2923 12.0722 37.1009 9.52926C37.3822 8.63863 37.4408 6.65816 37.2181 5.68551C36.89 4.30269 36.2806 3.23629 35.2142 2.15816C34.4525 1.39644 34.0658 1.10347 33.2689 0.728474C32.7298 0.470662 32.0033 0.20113 31.6634 0.130818C30.8431 -0.0449634 28.9212 -0.0215259 28.1478 0.165974Z" fill="#151515"/>
<path d="M8.10938 9.25762C6.83203 9.59746 5.92969 10.1365 4.85156 11.1912C4.07812 11.9529 3.80859 12.3162 3.42188 13.1248C2.82422 14.4139 2.68359 15.0232 2.68359 16.4178C2.68359 17.742 2.90625 18.7029 3.45703 19.7928C4.44141 21.7146 6.12891 23.074 8.21484 23.6131C9.28125 23.8943 11.4844 23.8006 12.5273 23.4373C13.5117 23.0857 14.8477 22.1717 15.5742 21.3631C16.8047 19.9803 17.5664 17.7654 17.4258 15.9373C17.3555 15.0232 17.0039 13.7225 16.6406 13.0076C15.7266 11.2029 13.8398 9.73809 11.7773 9.19902C10.8281 8.95293 9.17578 8.97637 8.10938 9.25762Z" fill="#151515"/>
<path d="M48.3048 18.2223C47.1798 18.4684 45.9259 19.1481 45.0119 19.9919C43.9806 20.9411 43.4064 21.82 42.9611 23.0856C42.6564 23.9645 42.6095 24.234 42.6095 25.4294C42.5978 27.6442 43.2306 29.1676 44.7658 30.7145C46.9689 32.9176 50.1798 33.5153 53.0275 32.2262C55.0197 31.3239 56.5666 29.4958 57.1291 27.3629C57.3634 26.4489 57.3634 24.5387 57.1291 23.6129C56.6134 21.609 55.1486 19.7926 53.3205 18.8786C51.7033 18.0817 49.9806 17.859 48.3048 18.2223Z" fill="#151515"/>
<path d="M22.6172 21.0352V23.9062H30H37.3828V21.0352V18.1641H30H22.6172V21.0352Z" fill="#151515"/>
<path d="M2.57812 30.1172V32.9297H10.0195H17.4609V30.1172V27.3047H10.0195H2.57812V30.1172Z" fill="#151515"/>
<path d="M22.6172 30.1172V32.9297H30H37.3828V30.1172V27.3047H30H22.6172V30.1172Z" fill="#151515"/>
<path d="M2.57812 39.1406V41.9531H10.0195H17.4609V39.1406V36.3281H10.0195H2.57812V39.1406Z" fill="#151515"/>
<path d="M22.6172 39.1406V41.9531H30H37.3828V39.1406V36.3281H30H22.6172V39.1406Z" fill="#151515"/>
<path d="M42.5391 39.1406V41.9531H49.9805H57.4219V39.1406V36.3281H49.9805H42.5391V39.1406Z" fill="#151515"/>
<path d="M2.57812 48.1641V50.9766H10.0195H17.4609V48.1641V45.3516H10.0195H2.57812V48.1641Z" fill="#151515"/>
<path d="M22.6172 48.1641V50.9766H30H37.3828V48.1641V45.3516H30H22.6172V48.1641Z" fill="#151515"/>
<path d="M42.5391 48.1641V50.9766H49.9805H57.4219V48.1641V45.3516H49.9805H42.5391V48.1641Z" fill="#151515"/>
<path d="M2.57812 57.1875V60H10.0195H17.4609V57.1875V54.375H10.0195H2.57812V57.1875Z" fill="#151515"/>
<path d="M22.6172 57.1875V60H30H37.3828V57.1875V54.375H30H22.6172V57.1875Z" fill="#151515"/>
<path d="M42.5391 57.1875V60H49.9805H57.4219V57.1875V54.375H49.9805H42.5391V57.1875Z" fill="#151515"/>
</svg>
