<svg width="16" height="16" viewBox="0 0 16 16" fill="none" xmlns="http://www.w3.org/2000/svg">
<path d="M13.3333 2.66666V13.3333H2.66659V2.66666H13.3333ZM14.6666 1.33333H1.33325V14.6667H14.6666V1.33333Z" fill="#0BA422"/>
<g clip-path="url(#clip0_608_30)">
<path d="M8.42319 7.60506H9.2677C9.97573 7.21606 10.241 6.51401 10.334 6.15318C10.3656 6.02948 10.2837 5.90665 10.1574 5.88873C9.05957 5.73092 8.50679 6.03716 8.11865 6.65306C8.14595 6.7179 8.1724 6.78358 8.19799 6.85012C8.25685 7.00623 8.29523 7.19134 8.31401 7.36707C8.84546 7.06509 9.30439 6.68378 9.46903 6.57459C9.34874 6.70595 9.01692 7.112 8.42319 7.60506Z" fill="#0BA322"/>
<path d="M4.00356 5.15937C4.09824 5.66864 4.47529 7.02924 5.85893 7.60505H7.5164C6.99263 6.65049 6.04575 6.18132 5.62264 5.92199C5.94509 5.98085 6.9423 6.32292 7.85165 7.27066C7.9216 7.34402 8.06405 7.49842 8.06832 7.49671C7.96509 6.00388 6.58146 4.79341 5.11848 4.79341C4.82077 4.79341 4.50259 4.8318 4.16307 4.91369C4.05302 4.94014 3.98307 5.04847 4.00356 5.15937Z" fill="#0BA322"/>
<path d="M12 8.07422C12 7.95649 11.9044 7.86096 11.7867 7.86096H5.21228C5.09456 7.86096 4.99902 7.95649 4.99902 8.07422V8.09981C4.99902 9.81613 6.39035 11.2066 8.10582 11.2066H8.89232C10.6087 11.2066 11.9991 9.81528 11.9991 8.09981V8.07422H12Z" fill="#0BA322"/>
</g>
<defs>
<clipPath id="clip0_608_30">
<rect width="8" height="8" fill="white" transform="translate(4 4)"/>
</clipPath>
</defs>
</svg>
