<svg width="22" height="22" viewBox="0 0 22 22" fill="none" xmlns="http://www.w3.org/2000/svg">
<path fill-rule="evenodd" clip-rule="evenodd" d="M2 11.165C2 8.73429 2.9656 6.40314 4.68437 4.68437C6.40314 2.9656 8.73429 2 11.165 2C13.5957 2 15.9269 2.9656 17.6456 4.68437C19.3644 6.40314 20.33 8.73429 20.33 11.165C20.33 13.5957 19.3644 15.9269 17.6456 17.6456C15.9269 19.3644 13.5957 20.33 11.165 20.33C8.73429 20.33 6.40314 19.3644 4.68437 17.6456C2.9656 15.9269 2 13.5957 2 11.165ZM10.642 15.0876L15.9186 8.49126L14.9654 7.72874L10.466 13.3512L7.27904 10.6958L6.49696 11.6342L10.642 15.0876Z" fill="#007A2F"/>
</svg>
