<svg width="24" height="24" viewBox="0 0 24 24" fill="none" xmlns="http://www.w3.org/2000/svg">
<g clip-path="url(#clip0_91_617)">
<path d="M20.6667 5.33325H14.6667V21.9999H22V6.66659C22 6.31296 21.8595 5.97382 21.6095 5.72378C21.3594 5.47373 21.0203 5.33325 20.6667 5.33325ZM17.3333 16.6666H16V15.3333H17.3333V16.6666ZM17.3333 13.3333H16V11.9999H17.3333V13.3333ZM17.3333 9.99992H16V8.66658H17.3333V9.99992ZM20 16.6666H18.6667V15.3333H20V16.6666ZM20 13.3333H18.6667V11.9999H20V13.3333ZM20 9.99992H18.6667V8.66658H20V9.99992Z" fill="#767676"/>
<path d="M11.92 2H4.07999C3.70515 2 3.34566 2.1489 3.08061 2.41396C2.81556 2.67901 2.66666 3.03849 2.66666 3.41333V22H5.99999V20H9.99999V22H13.3333V3.41333C13.3333 3.03849 13.1844 2.67901 12.9194 2.41396C12.6543 2.1489 12.2948 2 11.92 2ZM5.99999 16.6667H4.66666V15.3333H5.99999V16.6667ZM5.99999 13.3333H4.66666V12H5.99999V13.3333ZM5.99999 10H4.66666V8.66667H5.99999V10ZM5.99999 6.66667H4.66666V5.33333H5.99999V6.66667ZM8.66666 16.6667H7.33332V15.3333H8.66666V16.6667ZM8.66666 13.3333H7.33332V12H8.66666V13.3333ZM8.66666 10H7.33332V8.66667H8.66666V10ZM8.66666 6.66667H7.33332V5.33333H8.66666V6.66667ZM11.3333 16.6667H9.99999V15.3333H11.3333V16.6667ZM11.3333 13.3333H9.99999V12H11.3333V13.3333ZM11.3333 10H9.99999V8.66667H11.3333V10ZM11.3333 6.66667H9.99999V5.33333H11.3333V6.66667Z" fill="#767676"/>
</g>
<defs>
<clipPath id="clip0_91_617">
<rect width="24" height="24" fill="white"/>
</clipPath>
</defs>
</svg>
