<svg width="22" height="22" viewBox="0 0 22 22" fill="none" xmlns="http://www.w3.org/2000/svg">
<path d="M7.75 3.375H5V19.875H17.375V3.375H14.625M7.75 2H14.625L13.7656 4.75H8.60938L7.75 2Z" stroke="#007A2F" stroke-width="2" stroke-linejoin="round"/>
<path d="M10.394 12.9087L14.2304 9.13363C14.321 9.04454 14.4266 9 14.5473 9C14.668 9 14.7737 9.04454 14.8642 9.13363C14.9547 9.22272 15 9.32858 15 9.45122C15 9.57387 14.9547 9.67958 14.8642 9.76837L10.7109 13.8664C10.6203 13.9555 10.5147 14 10.394 14C10.2733 14 10.1676 13.9555 10.0771 13.8664L8.13058 11.951C8.04004 11.8619 7.99659 11.7562 8.00021 11.6339C8.00383 11.5115 8.05106 11.4056 8.1419 11.3163C8.23274 11.2269 8.34032 11.1823 8.46466 11.1826C8.58899 11.1829 8.69643 11.2275 8.78697 11.3163L10.394 12.9087Z" fill="#007A2F"/>
</svg>
