<svg width="26" height="26" viewBox="0 0 26 26" fill="none" xmlns="http://www.w3.org/2000/svg">
<path d="M13 3C7.47 3 3 7.47 3 13C3 18.53 7.47 23 13 23C18.53 23 23 18.53 23 13C23 7.47 18.53 3 13 3ZM17.3 17.3C17.2075 17.3927 17.0976 17.4663 16.9766 17.5164C16.8557 17.5666 16.726 17.5924 16.595 17.5924C16.464 17.5924 16.3343 17.5666 16.2134 17.5164C16.0924 17.4663 15.9825 17.3927 15.89 17.3L13 14.41L10.11 17.3C9.92302 17.487 9.66943 17.592 9.405 17.592C9.14057 17.592 8.88698 17.487 8.7 17.3C8.51302 17.113 8.40798 16.8594 8.40798 16.595C8.40798 16.4641 8.43377 16.3344 8.48387 16.2135C8.53398 16.0925 8.60742 15.9826 8.7 15.89L11.59 13L8.7 10.11C8.51302 9.92302 8.40798 9.66943 8.40798 9.405C8.40798 9.14057 8.51302 8.88698 8.7 8.7C8.88698 8.51302 9.14057 8.40798 9.405 8.40798C9.66943 8.40798 9.92302 8.51302 10.11 8.7L13 11.59L15.89 8.7C15.9826 8.60742 16.0925 8.53398 16.2135 8.48387C16.3344 8.43377 16.4641 8.40798 16.595 8.40798C16.7259 8.40798 16.8556 8.43377 16.9765 8.48387C17.0975 8.53398 17.2074 8.60742 17.3 8.7C17.3926 8.79258 17.466 8.90249 17.5161 9.02346C17.5662 9.14442 17.592 9.27407 17.592 9.405C17.592 9.53593 17.5662 9.66558 17.5161 9.78654C17.466 9.90751 17.3926 10.0174 17.3 10.11L14.41 13L17.3 15.89C17.68 16.27 17.68 16.91 17.3 17.3Z" fill="#D60000"/>
</svg>
