<svg width="20" height="20" viewBox="0 0 20 20" fill="none" xmlns="http://www.w3.org/2000/svg">
<path d="M5.83337 5.83301H5.00004C4.55801 5.83301 4.13409 6.0086 3.82153 6.32116C3.50897 6.63372 3.33337 7.05765 3.33337 7.49967V14.9997C3.33337 15.4417 3.50897 15.8656 3.82153 16.1782C4.13409 16.4907 4.55801 16.6663 5.00004 16.6663H12.5C12.9421 16.6663 13.366 16.4907 13.6786 16.1782C13.9911 15.8656 14.1667 15.4417 14.1667 14.9997V14.1663" stroke="#BD5B00" stroke-width="1.6" stroke-linecap="round" stroke-linejoin="round"/>
<path d="M13.3333 4.16676L15.8333 6.66676M16.9875 5.48759C17.3157 5.15938 17.5001 4.71424 17.5001 4.25009C17.5001 3.78594 17.3157 3.34079 16.9875 3.01259C16.6593 2.68438 16.2142 2.5 15.75 2.5C15.2858 2.5 14.8407 2.68438 14.5125 3.01259L7.5 10.0001V12.5001H10L16.9875 5.48759Z" stroke="#BD5B00" stroke-width="1.6" stroke-linecap="round" stroke-linejoin="round"/>
</svg>
