<svg width="200" height="152" viewBox="0 0 200 152" fill="none" xmlns="http://www.w3.org/2000/svg">
<path d="M161.6 84.0623C158.2 82.8623 154.4 83.8623 152.4 86.4623L142.2 100.462C141.6 101.262 140.6 101.262 140 100.462L129.8 86.4623C127.8 83.8623 124 82.8623 120.6 84.0623C116.6 85.4623 113.2 86.8623 110.2 88.2623C108.8 88.8623 108.8 90.8623 110.2 91.6623C122.4 98.6623 128.6 106.262 130.8 119.862C131 120.862 131.8 121.462 132.6 121.462H185.2C187.8 121.462 190 119.662 190 117.462C190 98.0623 182.6 91.6623 161.6 84.0623ZM132.4 22.2623C109.6 22.8623 110 48.2623 118.4 63.6623C119.6 65.8623 121.6 68.2623 123.6 69.8623C125.2 71.0623 127.2 71.6623 129.2 71.6623C129.6 71.6623 130 71.4623 130.2 71.2623C132.8 74.0623 136.6 77.0623 141.2 77.0623H141.4C145.2 77.0623 149 75.0623 152.4 71.2623C152.6 71.4623 153 71.4623 153.4 71.4623C155.2 71.4623 156.8 71.0623 158.4 70.0623C160.4 68.6623 162.2 66.4623 163.6 64.8623C179.6 44.2623 163.2 2.26233 132.4 22.2623ZM158.4 41.8623C159 46.4623 157.2 54.4623 154.6 62.0623C151 69.0623 145.6 73.4623 141.6 73.0623C133.8 72.4623 128.8 62.6623 128.8 62.4623C126.4 55.4623 124.4 48.4623 124.4 46.2623C124.4 45.8623 124.8 45.4623 125.2 45.2623C132 42.8623 136.2 36.6623 137.6 34.0623C138 33.4623 138.8 33.2623 139.2 33.8623C143.6 38.6623 154.6 40.4623 157.6 41.0623C158 40.8623 158.4 41.2623 158.4 41.8623ZM96 93.8623C92.8 92.4623 89 93.6623 87 96.6623L76 114.062C75.6 114.662 74.6 114.662 74.4 113.862L69.8 98.6623C69.6 98.0623 69.8 97.2623 70.2 96.8623L73.6 93.4623C74.4 92.8623 73.8 91.4623 72.8 91.4623H60.8C59.8 91.4623 59.2 92.6623 60 93.4623L63.4 96.8623C63.8 97.2623 64 98.0623 63.8 98.6623L59.2 113.862C59 114.662 58 114.662 57.6 114.062L46.6 96.6623C44.6 93.6623 41 92.4623 37.6 93.8623C17.2 102.262 10 109.662 10 131.262C10 133.862 12 135.862 14.6 135.862H119C121.6 135.862 123.6 133.862 123.6 131.262C123.6 109.662 116.2 102.262 96 93.8623ZM66.8 84.8623C93.6 84.8623 107.6 23.8623 66.8 23.2623C26 24.0623 40 84.8623 66.8 84.8623Z" fill="#E6E6E6"/>
</svg>
