<svg width="130" height="130" viewBox="0 0 130 130" fill="none" xmlns="http://www.w3.org/2000/svg">
<path d="M108.328 69.5553L108.334 94.7915L65.0001 119.167L21.6667 94.7915L21.6613 69.9724L32.4948 76.3046L32.5001 88.454L59.5835 103.686L59.5779 84.8899L65.0374 81.5412L70.4114 84.8465L70.4167 103.686L97.5001 88.4487L97.4948 75.8821L108.328 69.5553ZM52.8174 14.6455L64.8503 21.7523L65.0001 21.6665L65.0669 21.7036L76.4624 14.9771L122.014 41.5278L110.578 48.5486L122.016 55.3007L76.1814 82.0675L65.0075 75.2039L53.4827 82.2874L7.64801 55.5206L19.3394 48.6136L7.26562 41.1965L52.8174 14.6455ZM103.323 48.7499L64.9734 27.6574L27.3946 48.7499L64.9734 69.8424L103.323 48.7499Z" fill="#E6E6E6"/>
</svg>
