<svg width="20" height="20" viewBox="0 0 20 20" fill="none" xmlns="http://www.w3.org/2000/svg">
<path d="M11.1603 12.4716C11.4001 12.4717 11.6307 12.5641 11.8043 12.7296C11.9779 12.8951 12.0811 13.1211 12.0927 13.3606C12.1042 13.6002 12.0231 13.835 11.8662 14.0165C11.7093 14.1979 11.4887 14.312 11.2499 14.3351L11.1603 14.3395H8.66974C8.42989 14.3394 8.19928 14.247 8.02569 14.0815C7.85211 13.9159 7.74886 13.69 7.73733 13.4504C7.7258 13.2108 7.80689 12.976 7.96378 12.7946C8.12067 12.6132 8.34135 12.4991 8.58008 12.4759L8.66974 12.4716H11.1603ZM13.0282 8.73579C13.2759 8.73579 13.5134 8.83419 13.6886 9.00934C13.8637 9.18449 13.9621 9.42204 13.9621 9.66974C13.9621 9.91744 13.8637 10.155 13.6886 10.3301C13.5134 10.5053 13.2759 10.6037 13.0282 10.6037H6.80184C6.55414 10.6037 6.31659 10.5053 6.14144 10.3301C5.96629 10.155 5.86789 9.91744 5.86789 9.66974C5.86789 9.42204 5.96629 9.18449 6.14144 9.00934C6.31659 8.83419 6.55414 8.73579 6.80184 8.73579H13.0282ZM14.8961 5C15.1438 5 15.3813 5.0984 15.5565 5.27355C15.7316 5.4487 15.83 5.68625 15.83 5.93395C15.83 6.18165 15.7316 6.4192 15.5565 6.59435C15.3813 6.7695 15.1438 6.8679 14.8961 6.8679H4.93395C4.68625 6.8679 4.4487 6.7695 4.27355 6.59435C4.0984 6.4192 4 6.18165 4 5.93395C4 5.68625 4.0984 5.4487 4.27355 5.27355C4.4487 5.0984 4.68625 5 4.93395 5H14.8961Z" fill="#767676"/>
</svg>
