<svg width="36" height="36" viewBox="0 0 512 512" fill="none" xmlns="http://www.w3.org/2000/svg">
    <path
        d="M442.953 57.233C425.023 39.2634 401.416 28.0641 376.152 25.5429C350.889 23.0216 325.533 29.3343 304.403 43.4057C283.274 57.4771 267.678 78.4366 260.272 102.714C252.867 126.991 254.11 153.084 263.79 176.547C273.471 200.011 290.989 219.393 313.361 231.393C335.732 243.393 361.574 247.268 386.483 242.358C411.392 237.447 433.828 224.056 449.968 204.464C466.108 184.872 474.954 160.292 475 134.911C475.026 120.494 472.209 106.212 466.71 92.8837C461.211 79.5551 453.138 67.4407 442.953 57.233ZM299.4 134.911C299.4 117.452 306.338 100.708 318.687 88.3631C331.036 76.0178 347.785 69.0822 365.25 69.0822C375.061 69.1403 384.735 71.3894 393.565 75.6651L305.765 163.437C301.532 154.526 299.357 144.777 299.4 134.911ZM411.784 181.431C402.01 190.718 389.682 196.872 376.383 199.1C363.084 201.329 349.423 199.531 337.154 193.938L424.954 106.166C429.144 115.162 431.245 124.989 431.1 134.911C431.084 152.364 424.137 169.097 411.784 181.431ZM409.15 288.513C403.328 288.513 397.745 290.824 393.629 294.94C389.512 299.055 387.2 304.636 387.2 310.456V319.013L354.714 286.318C343.033 275.349 327.609 269.242 311.582 269.242C295.556 269.242 280.131 275.349 268.45 286.318L253.085 301.898L198.649 247.26C186.968 236.29 171.544 230.184 155.518 230.184C139.491 230.184 124.067 236.29 112.386 247.26L79.9 279.955V156.854C79.9 151.035 82.2126 145.453 86.329 141.338C90.4454 137.223 96.0285 134.911 101.85 134.911H189.65C195.471 134.911 201.055 132.599 205.171 128.484C209.287 124.369 211.6 118.788 211.6 112.968C211.6 107.149 209.287 101.567 205.171 97.4522C201.055 93.3371 195.471 91.0252 189.65 91.0252H101.85C84.3855 91.0252 67.6363 97.9608 55.287 110.306C42.9377 122.652 36 139.395 36 156.854V420.171C36 437.63 42.9377 454.374 55.287 466.719C67.6363 479.064 84.3855 486 101.85 486H365.25C372.357 485.89 379.398 484.63 386.102 482.27H388.078C399.335 478.254 409.286 471.252 416.865 462.013C424.444 452.774 429.365 441.647 431.1 429.826C431.224 428.219 431.224 426.605 431.1 424.998V310.456C431.1 304.636 428.787 299.055 424.671 294.94C420.554 290.824 414.971 288.513 409.15 288.513ZM101.85 442.114C96.0285 442.114 90.4454 439.802 86.329 435.687C82.2126 431.572 79.9 425.991 79.9 420.171V341.834L143.555 278.419C146.78 275.347 151.063 273.633 155.518 273.633C159.972 273.633 164.256 275.347 167.48 278.419L237.501 348.198L331.447 442.114H101.85ZM387.2 420.171C387.059 424.42 385.686 428.536 383.249 432.02L284.035 332.399L299.619 317.039C302.844 313.967 307.128 312.253 311.582 312.253C316.037 312.253 320.32 313.967 323.545 317.039L387.2 380.893V420.171Z"
        fill="#747474" />
</svg>