<svg width="24" height="24" viewBox="0 0 24 24" fill="none" xmlns="http://www.w3.org/2000/svg">
<path d="M21.1699 15.4L15.2599 5.55001C14.4799 4.25001 13.2999 3.51001 11.9999 3.51001C10.6999 3.51001 9.51992 4.25001 8.73992 5.54001L2.82992 15.4C2.38992 16.13 2.16992 16.89 2.16992 17.61C2.16992 18.18 2.30992 18.74 2.58992 19.23C3.22992 20.35 4.46992 21 5.99992 21H17.9999C19.5299 21 20.7699 20.35 21.4099 19.23C21.6899 18.74 21.8299 18.21 21.8299 17.65C21.8399 16.91 21.6199 16.14 21.1699 15.4ZM11.9999 8.45001C12.8499 8.45001 13.5499 9.15001 13.5499 10C13.5499 10.85 12.8599 11.55 11.9999 11.55C11.1499 11.55 10.4499 10.85 10.4499 10C10.4499 9.14001 11.1399 8.45001 11.9999 8.45001ZM13.6899 16.91C13.6599 16.95 12.8899 17.83 11.6199 17.83H11.4699C10.9599 17.8 10.5399 17.58 10.2899 17.2C9.97992 16.73 9.92992 16.09 10.1699 15.38L10.5799 14.16C10.8099 13.48 10.5899 13.37 10.4699 13.31L10.3299 13.29C10.0799 13.29 9.72992 13.44 9.61992 13.5C9.51992 13.55 9.38992 13.53 9.30992 13.43C9.23992 13.33 9.23992 13.2 9.31992 13.11C9.34992 13.07 10.1899 12.12 11.5399 12.2C12.0499 12.23 12.4699 12.45 12.7199 12.83C13.0399 13.3 13.0799 13.94 12.8399 14.66L12.4299 15.88C12.1999 16.56 12.4199 16.67 12.5399 16.73L12.6799 16.75C12.9299 16.75 13.2799 16.6 13.3899 16.55C13.4999 16.49 13.6199 16.52 13.6999 16.62C13.7699 16.69 13.7699 16.82 13.6899 16.91Z" fill="#23897D"/>
</svg>
