<svg width="20" height="20" viewBox="0 0 20 20" fill="none" xmlns="http://www.w3.org/2000/svg">
<path d="M10 3.33366C8.89497 3.33366 7.83517 3.77265 7.05376 4.55405C6.27236 5.33545 5.83337 6.39526 5.83337 7.50032C5.83337 8.25532 6.26504 9.23366 6.98504 10.2903C7.68504 11.3187 8.57338 12.297 9.29671 13.0253C9.69338 13.4253 10.3067 13.4253 10.7034 13.0253C11.4267 12.297 12.3134 11.3187 13.015 10.292C13.7334 9.23366 14.1667 8.25366 14.1667 7.50032C14.1667 6.39526 13.7277 5.33545 12.9463 4.55405C12.1649 3.77265 11.1051 3.33366 10 3.33366ZM4.16671 7.50032C4.16671 6.73428 4.31759 5.97574 4.61074 5.268C4.9039 4.56027 5.33358 3.91721 5.87525 3.37554C6.41693 2.83386 7.05999 2.40418 7.76772 2.11103C8.47545 1.81788 9.234 1.66699 10 1.66699C10.7661 1.66699 11.5246 1.81788 12.2324 2.11103C12.9401 2.40418 13.5832 2.83386 14.1248 3.37554C14.6665 3.91721 15.0962 4.56027 15.3893 5.268C15.6825 5.97574 15.8334 6.73428 15.8334 7.50032C15.8334 8.78366 15.1534 10.1137 14.3917 11.2303C13.61 12.3753 12.645 13.4353 11.8867 14.1987C11.6408 14.4496 11.3472 14.649 11.0232 14.7851C10.6993 14.9212 10.3514 14.9913 10 14.9913C9.64865 14.9913 9.3008 14.9212 8.97684 14.7851C8.65288 14.649 8.35933 14.4496 8.11338 14.1987C7.35504 13.4353 6.39004 12.3753 5.60837 11.2303C4.84671 10.1137 4.16671 8.78199 4.16671 7.50032ZM11.6667 7.50032C11.6667 7.94235 11.4911 8.36627 11.1786 8.67884C10.866 8.9914 10.4421 9.16699 10 9.16699C9.55801 9.16699 9.13409 8.9914 8.82153 8.67884C8.50897 8.36627 8.33337 7.94235 8.33337 7.50032C8.33337 7.0583 8.50897 6.63437 8.82153 6.32181C9.13409 6.00925 9.55801 5.83366 10 5.83366C10.4421 5.83366 10.866 6.00925 11.1786 6.32181C11.4911 6.63437 11.6667 7.0583 11.6667 7.50032ZM4.03337 13.442C4.23671 13.2337 4.47837 13.0487 4.74504 12.882C5.09504 13.3437 5.46171 13.782 5.81671 14.1853C5.59675 14.2972 5.39456 14.4409 5.21671 14.612C5.02837 14.807 5.00004 14.937 5.00004 15.0003C5.00004 15.0637 5.02671 15.1937 5.21671 15.3887C5.41337 15.5853 5.73671 15.802 6.20337 16.002C7.13337 16.4003 8.47504 16.667 10 16.667C11.525 16.667 12.8667 16.4003 13.7967 16.002C14.2634 15.802 14.5867 15.5853 14.7817 15.3887C14.9734 15.1937 15 15.0637 15 15.0003C15 14.937 14.9734 14.807 14.7834 14.612C14.6478 14.4731 14.4478 14.3309 14.1834 14.1853C14.54 13.7837 14.905 13.3437 15.255 12.882C15.5239 13.0487 15.7617 13.2353 15.9684 13.442C16.3667 13.8453 16.6667 14.3737 16.6667 15.0003C16.6667 15.627 16.3667 16.1553 15.9667 16.5587C15.5734 16.9587 15.0434 17.282 14.4534 17.5337C13.27 18.0403 11.6967 18.3337 10 18.3337C8.30337 18.3337 6.72837 18.0403 5.54671 17.5337C4.95671 17.282 4.42671 16.9587 4.03171 16.5587C3.63337 16.1553 3.33337 15.627 3.33337 15.0003C3.33337 14.3737 3.63337 13.8453 4.03337 13.442Z" fill="#98941C"/>
</svg>
