<svg width="30" height="30" viewBox="0 0 30 30" fill="none" xmlns="http://www.w3.org/2000/svg">
<path fill-rule="evenodd" clip-rule="evenodd" d="M6.4232 11.75C6.4232 9.42935 7.34526 7.20376 8.98654 5.56281C10.6278 3.92187 12.8539 3 15.175 3C17.4961 3 19.7222 3.92187 21.3635 5.56281C23.0047 7.20376 23.9268 9.42935 23.9268 11.75V16.455L26.2048 21.01C26.3096 21.2196 26.3591 21.4526 26.3486 21.6868C26.3381 21.9209 26.2678 22.1485 26.1446 22.3479C26.0213 22.5473 25.8491 22.7119 25.6443 22.826C25.4395 22.9401 25.209 23 24.9745 23H20.0185C19.7404 24.0728 19.1138 25.0229 18.2372 25.7012C17.3606 26.3794 16.2835 26.7474 15.175 26.7474C14.0665 26.7474 12.9894 26.3794 12.1128 25.7012C11.2362 25.0229 10.6096 24.0728 10.3315 23H5.37549C5.14104 23 4.91047 22.9401 4.70568 22.826C4.5009 22.7119 4.32869 22.5473 4.20543 22.3479C4.08216 22.1485 4.01192 21.9209 4.00139 21.6868C3.99085 21.4526 4.04037 21.2196 4.14523 21.01L6.4232 16.455V11.75ZM13.0096 23C13.229 23.38 13.5447 23.6956 13.9248 23.915C14.3049 24.1344 14.7361 24.2499 15.175 24.2499C15.6139 24.2499 16.0451 24.1344 16.4252 23.915C16.8053 23.6956 17.121 23.38 17.3404 23H13.0096Z" fill="#037AC5"/>
</svg>
