<svg width="20" height="20" viewBox="0 0 20 20" fill="none" xmlns="http://www.w3.org/2000/svg">
<path d="M8.5 3.6875C8.5 3.45264 8.56965 3.22304 8.70013 3.02776C8.83061 2.83248 9.01608 2.68027 9.23306 2.59039C9.45005 2.50051 9.68882 2.477 9.91917 2.52282C10.1495 2.56864 10.3611 2.68174 10.5272 2.84781C10.6933 3.01389 10.8064 3.22548 10.8522 3.45583C10.898 3.68618 10.8745 3.92495 10.7846 4.14194C10.6947 4.35893 10.5425 4.54439 10.3472 4.67487C10.152 4.80536 9.92236 4.875 9.6875 4.875C9.37256 4.875 9.07051 4.74989 8.84781 4.52719C8.62511 4.30449 8.5 4.00245 8.5 3.6875ZM8.5 9.875C8.5 9.64014 8.56965 9.41055 8.70013 9.21526C8.83061 9.01998 9.01608 8.86777 9.23306 8.77789C9.45005 8.68802 9.68882 8.6645 9.91917 8.71032C10.1495 8.75614 10.3611 8.86924 10.5272 9.03531C10.6933 9.20139 10.8064 9.41298 10.8522 9.64333C10.898 9.87368 10.8745 10.1124 10.7846 10.3294C10.6947 10.5464 10.5425 10.7319 10.3472 10.8624C10.152 10.9929 9.92236 11.0625 9.6875 11.0625C9.37256 11.0625 9.07051 10.9374 8.84781 10.7147C8.62511 10.492 8.5 10.1899 8.5 9.875ZM8.5 16.0625C8.5 15.8276 8.56964 15.598 8.70013 15.4028C8.83061 15.2075 9.01608 15.0553 9.23306 14.9654C9.45005 14.8755 9.68882 14.852 9.91917 14.8978C10.1495 14.9436 10.3611 15.0567 10.5272 15.2228C10.6933 15.3889 10.8064 15.6005 10.8522 15.8308C10.898 16.0612 10.8745 16.3 10.7846 16.5169C10.6947 16.7339 10.5425 16.9194 10.3472 17.0499C10.152 17.1804 9.92236 17.25 9.6875 17.25C9.37256 17.25 9.07051 17.1249 8.84781 16.9022C8.62511 16.6795 8.5 16.3774 8.5 16.0625Z" stroke="#8E8A00"/>
</svg>
