<svg width="22" height="22" viewBox="0 0 22 22" fill="none" xmlns="http://www.w3.org/2000/svg">
<path d="M19.8448 18.2186C18.5359 15.9559 16.519 14.3334 14.1652 13.5643C15.3295 12.8712 16.2341 11.815 16.74 10.558C17.246 9.30101 17.3253 7.91268 16.9659 6.60622C16.6065 5.29976 15.8281 4.14741 14.7504 3.32613C13.6726 2.50485 12.3551 2.06006 11.0001 2.06006C9.64508 2.06006 8.32754 2.50485 7.24979 3.32613C6.17204 4.14741 5.39369 5.29976 5.03425 6.60622C4.67481 7.91268 4.75417 9.30101 5.26013 10.558C5.7661 11.815 6.67069 12.8712 7.835 13.5643C5.48117 14.3326 3.46422 15.9551 2.15539 18.2186C2.1074 18.2969 2.07556 18.384 2.06176 18.4748C2.04797 18.5655 2.05249 18.6581 2.07506 18.7471C2.09764 18.8361 2.1378 18.9197 2.1932 18.9929C2.24859 19.0661 2.31809 19.1275 2.39759 19.1734C2.47708 19.2193 2.56497 19.2488 2.65607 19.2603C2.74717 19.2717 2.83963 19.2647 2.92799 19.2398C3.01635 19.2149 3.09883 19.1725 3.17056 19.1152C3.24229 19.0579 3.30182 18.9868 3.34563 18.9061C4.96469 16.108 7.82641 14.4374 11.0001 14.4374C14.1738 14.4374 17.0355 16.108 18.6545 18.9061C18.6983 18.9868 18.7579 19.0579 18.8296 19.1152C18.9013 19.1725 18.9838 19.2149 19.0722 19.2398C19.1605 19.2647 19.253 19.2717 19.3441 19.2603C19.4352 19.2488 19.5231 19.2193 19.6026 19.1734C19.6821 19.1275 19.7516 19.0661 19.807 18.9929C19.8624 18.9197 19.9025 18.8361 19.9251 18.7471C19.9477 18.6581 19.9522 18.5655 19.9384 18.4748C19.9246 18.384 19.8928 18.2969 19.8448 18.2186ZM6.18758 8.2499C6.18758 7.29807 6.46983 6.36763 6.99863 5.57622C7.52744 4.7848 8.27905 4.16797 9.15842 3.80373C10.0378 3.43948 11.0054 3.34418 11.939 3.52987C12.8725 3.71556 13.73 4.1739 14.403 4.84695C15.0761 5.51999 15.5344 6.37749 15.7201 7.31103C15.9058 8.24456 15.8105 9.21219 15.4462 10.0916C15.082 10.9709 14.4652 11.7225 13.6738 12.2513C12.8823 12.7801 11.9519 13.0624 11.0001 13.0624C9.72414 13.061 8.50086 12.5536 7.59864 11.6513C6.69641 10.7491 6.18894 9.52583 6.18758 8.2499Z" fill="#414141"/>
</svg>
