<svg width="24" height="24" viewBox="0 0 24 24" fill="none" xmlns="http://www.w3.org/2000/svg">
<path d="M15 21H13C12.4696 21 11.9609 20.7893 11.5858 20.4142C11.2107 20.0391 11 19.5304 11 19C11 18.4696 11.2107 17.9609 11.5858 17.5858C11.9609 17.2107 12.4696 17 13 17H15V15H13C11.9391 15 10.9217 15.4214 10.1716 16.1716C9.42143 16.9217 9 17.9391 9 19C9 20.0609 9.42143 21.0783 10.1716 21.8284C10.9217 22.5786 11.9391 23 13 23H15V21ZM23 19C23 20.0609 22.5786 21.0783 21.8284 21.8284C21.0783 22.5786 20.0609 23 19 23H17V21H19C19.5304 21 20.0391 20.7893 20.4142 20.4142C20.7893 20.0391 21 19.5304 21 19C21 18.4696 20.7893 17.9609 20.4142 17.5858C20.0391 17.2107 19.5304 17 19 17H17V15H19C20.0609 15 21.0783 15.4214 21.8284 16.1716C22.5786 16.9217 23 17.9391 23 19Z" fill="#767676"/>
<path d="M14 18.0002H18V20.0002H14V18.0002ZM7 19.0002C7.00201 18.6649 7.03211 18.3304 7.09 18.0002H3V16.6002C3 14.6002 7 13.5002 9 13.5002C9.45259 13.5063 9.90399 13.5481 10.35 13.6252C11.1732 13.2148 12.0802 13.0009 13 13.0002H18V4.0002C17.9984 3.47026 17.7872 2.96247 17.4125 2.58774C17.0377 2.21301 16.5299 2.00179 16 2.0002H11.82C11.6152 1.41564 11.2339 0.909159 10.7287 0.550821C10.2235 0.192483 9.61939 0 9 0C8.38061 0 7.77654 0.192483 7.27133 0.550821C6.76612 0.909159 6.38476 1.41564 6.18 2.0002H2C1.47005 2.00179 0.962265 2.21301 0.587535 2.58774C0.212805 2.96247 0.00158273 3.47026 0 4.0002L0 18.0002C0.00158273 18.5301 0.212805 19.0379 0.587535 19.4127C0.962265 19.7874 1.47005 19.9986 2 20.0002H7.09C7.03211 19.67 7.00201 19.3355 7 19.0002ZM9 2.0002C9.19778 2.0002 9.39112 2.05885 9.55557 2.16873C9.72002 2.27861 9.84819 2.43479 9.92388 2.61752C9.99957 2.80025 10.0194 3.00131 9.98079 3.19529C9.9422 3.38927 9.84696 3.56746 9.70711 3.70731C9.56725 3.84716 9.38907 3.9424 9.19509 3.98099C9.00111 4.01957 8.80004 3.99977 8.61732 3.92408C8.43459 3.84839 8.27841 3.72022 8.16853 3.55577C8.05865 3.39132 8 3.19798 8 3.0002C8.00079 2.73523 8.1064 2.48133 8.29377 2.29397C8.48113 2.1066 8.73503 2.00099 9 2.0002ZM9 6.0002C9.59334 6.0002 10.1734 6.17615 10.6667 6.50579C11.1601 6.83544 11.5446 7.30397 11.7716 7.85215C11.9987 8.40033 12.0581 9.00353 11.9424 9.58547C11.8266 10.1674 11.5409 10.702 11.1213 11.1215C10.7018 11.5411 10.1672 11.8268 9.58527 11.9426C9.00333 12.0583 8.40013 11.9989 7.85195 11.7718C7.30377 11.5448 6.83524 11.1603 6.50559 10.6669C6.17595 10.1736 6 9.59355 6 9.0002C5.99947 8.60609 6.07671 8.21574 6.22729 7.85153C6.37787 7.48732 6.59882 7.15639 6.87751 6.87771C7.15619 6.59903 7.48711 6.37807 7.85133 6.22749C8.21554 6.07691 8.60589 5.99968 9 6.0002Z" fill="#767676"/>
</svg>
