<svg width="22" height="22" viewBox="0 0 22 22" fill="none" xmlns="http://www.w3.org/2000/svg">
<path d="M17.2851 1.8838C17.6234 1.93261 17.875 2.22549 17.875 2.5713V19.4288C17.875 19.7746 17.6234 20.0675 17.2851 20.1163L9.03513 21.3057C8.93706 21.3194 8.8372 21.3118 8.74232 21.2835C8.64744 21.2552 8.55977 21.2068 8.48527 21.1415C8.41078 21.0763 8.35121 20.9958 8.31061 20.9055C8.27001 20.8152 8.24934 20.7172 8.25 20.6182V19.25H4.84825C4.65672 19.2495 4.47318 19.1732 4.33768 19.0379C4.20218 18.9025 4.12573 18.719 4.125 18.5275V3.4733C4.125 3.07455 4.45019 2.74936 4.84825 2.74936H8.25V1.38192C8.25 0.959799 8.62056 0.635299 9.03513 0.695111L17.2851 1.8838ZM10.3125 11.6875C10.4948 11.6875 10.6697 11.6151 10.7986 11.4862C10.9276 11.3573 11 11.1824 11 11C11 10.8177 10.9276 10.6428 10.7986 10.5139C10.6697 10.385 10.4948 10.3125 10.3125 10.3125C10.1302 10.3125 9.9553 10.385 9.82636 10.5139C9.69743 10.6428 9.625 10.8177 9.625 11C9.625 11.1824 9.69743 11.3573 9.82636 11.4862C9.9553 11.6151 10.1302 11.6875 10.3125 11.6875ZM5.5 17.875H8.25V4.12505H5.5V17.875Z" fill="#414141"/>
</svg>
