<svg width="22" height="22" viewBox="0 0 22 22" fill="none" xmlns="http://www.w3.org/2000/svg">
<path d="M11 10.0833C12.2156 10.0833 13.3814 10.5661 14.2409 11.4257C15.1005 12.2852 15.5834 13.451 15.5834 14.6666V20.1666H13.75V14.6666C13.7501 13.9651 13.4821 13.2902 13.0009 12.7798C12.5197 12.2695 11.8616 11.9623 11.1614 11.9212L11 11.9166C10.2986 11.9165 9.62365 12.1846 9.1133 12.6658C8.60295 13.147 8.29578 13.805 8.25462 14.5053L8.25004 14.6666V20.1666H6.41671V14.6666C6.41671 13.451 6.89959 12.2852 7.75913 11.4257C8.61868 10.5661 9.78447 10.0833 11 10.0833ZM5.04171 12.8333C5.29837 12.8339 5.54587 12.8626 5.78421 12.9194C5.62805 13.3862 5.53525 13.8717 5.50829 14.3632L5.50004 14.6666V14.7454C5.39465 14.7078 5.28506 14.6832 5.17371 14.6721L5.04171 14.6666C4.70004 14.6666 4.37061 14.7938 4.11761 15.0234C3.8646 15.253 3.70615 15.5686 3.67312 15.9087L3.66671 16.0416V20.1666H1.83337V16.0416C1.83337 15.1907 2.17139 14.3746 2.77307 13.773C3.37475 13.1713 4.1908 12.8333 5.04171 12.8333ZM16.9584 12.8333C17.8093 12.8333 18.6253 13.1713 19.227 13.773C19.8287 14.3746 20.1667 15.1907 20.1667 16.0416V20.1666H18.3334V16.0416C18.3334 15.6999 18.2062 15.3705 17.9766 15.1175C17.7469 14.8645 17.4314 14.706 17.0913 14.673L16.9584 14.6666C16.797 14.6672 16.6443 14.6932 16.5 14.7445V14.6666C16.5 14.0561 16.401 13.4694 16.2177 12.9213C16.4542 12.8635 16.7035 12.8333 16.9584 12.8333ZM5.04171 7.33325C5.6495 7.33325 6.23239 7.57469 6.66216 8.00447C7.09193 8.43424 7.33337 9.01713 7.33337 9.62492C7.33337 10.2327 7.09193 10.8156 6.66216 11.2454C6.23239 11.6751 5.6495 11.9166 5.04171 11.9166C4.43392 11.9166 3.85103 11.6751 3.42125 11.2454C2.99148 10.8156 2.75004 10.2327 2.75004 9.62492C2.75004 9.01713 2.99148 8.43424 3.42125 8.00447C3.85103 7.57469 4.43392 7.33325 5.04171 7.33325ZM16.9584 7.33325C17.5662 7.33325 18.1491 7.57469 18.5788 8.00447C19.0086 8.43424 19.25 9.01713 19.25 9.62492C19.25 10.2327 19.0086 10.8156 18.5788 11.2454C18.1491 11.6751 17.5662 11.9166 16.9584 11.9166C16.3506 11.9166 15.7677 11.6751 15.3379 11.2454C14.9082 10.8156 14.6667 10.2327 14.6667 9.62492C14.6667 9.01713 14.9082 8.43424 15.3379 8.00447C15.7677 7.57469 16.3506 7.33325 16.9584 7.33325ZM5.04171 9.16659C4.92015 9.16659 4.80357 9.21487 4.71762 9.30083C4.63166 9.38678 4.58337 9.50336 4.58337 9.62492C4.58337 9.74648 4.63166 9.86306 4.71762 9.94901C4.80357 10.035 4.92015 10.0833 5.04171 10.0833C5.16326 10.0833 5.27984 10.035 5.3658 9.94901C5.45175 9.86306 5.50004 9.74648 5.50004 9.62492C5.50004 9.50336 5.45175 9.38678 5.3658 9.30083C5.27984 9.21487 5.16326 9.16659 5.04171 9.16659ZM16.9584 9.16659C16.8368 9.16659 16.7202 9.21487 16.6343 9.30083C16.5483 9.38678 16.5 9.50336 16.5 9.62492C16.5 9.74648 16.5483 9.86306 16.6343 9.94901C16.7202 10.035 16.8368 10.0833 16.9584 10.0833C17.0799 10.0833 17.1965 10.035 17.2825 9.94901C17.3684 9.86306 17.4167 9.74648 17.4167 9.62492C17.4167 9.50336 17.3684 9.38678 17.2825 9.30083C17.1965 9.21487 17.0799 9.16659 16.9584 9.16659ZM11 1.83325C11.9725 1.83325 12.9051 2.21956 13.5928 2.90719C14.2804 3.59483 14.6667 4.52746 14.6667 5.49992C14.6667 6.47238 14.2804 7.40501 13.5928 8.09264C12.9051 8.78028 11.9725 9.16659 11 9.16659C10.0276 9.16659 9.09495 8.78028 8.40732 8.09264C7.71968 7.40501 7.33337 6.47238 7.33337 5.49992C7.33337 4.52746 7.71968 3.59483 8.40732 2.90719C9.09495 2.21956 10.0276 1.83325 11 1.83325ZM11 3.66659C10.5138 3.66659 10.0475 3.85974 9.70368 4.20356C9.35986 4.54737 9.16671 5.01369 9.16671 5.49992C9.16671 5.98615 9.35986 6.45246 9.70368 6.79628C10.0475 7.1401 10.5138 7.33325 11 7.33325C11.4863 7.33325 11.9526 7.1401 12.2964 6.79628C12.6402 6.45246 12.8334 5.98615 12.8334 5.49992C12.8334 5.01369 12.6402 4.54737 12.2964 4.20356C11.9526 3.85974 11.4863 3.66659 11 3.66659Z" fill="#414141"/>
</svg>
