<svg width="54" height="54" viewBox="0 0 54 54" fill="none" xmlns="http://www.w3.org/2000/svg">
<path d="M13.1378 22.8049C8.18438 23.9827 4.5 28.4366 4.5 33.75C4.5 39.9634 9.53663 45 15.75 45C16.8154 45 17.847 44.8515 18.8246 44.5748M40.5619 22.8049C45.5153 23.9827 49.1985 28.4366 49.1985 33.75C49.1985 39.9634 44.1619 45 37.9485 45C36.8831 45 35.8515 44.8515 34.875 44.5748M40.5 22.5C40.5 15.0446 34.4554 9 27 9C19.5446 9 13.5 15.0446 13.5 22.5M19.1981 31.3661L27 23.5395L35.0235 31.5M27 42.75V27.5197" stroke="#4A58A4" stroke-width="3" stroke-linecap="round" stroke-linejoin="round"/>
</svg>
