<svg width="22" height="22" viewBox="0 0 22 22" fill="none" xmlns="http://www.w3.org/2000/svg">
<path d="M19.25 14.6666V11.9166C19.25 10.8991 18.4341 10.0833 17.4166 10.0833H11.9166V7.33325H13.75V1.83325H8.24996V7.33325H10.0833V10.0833H4.58329C3.56579 10.0833 2.74996 10.8991 2.74996 11.9166V14.6666H0.916626V20.1666H6.41663V14.6666H4.58329V11.9166H10.0833V14.6666H8.24996V20.1666H13.75V14.6666H11.9166V11.9166H17.4166V14.6666H15.5833V20.1666H21.0833V14.6666H19.25ZM10.0833 3.66659H11.9166V5.49992H10.0833V3.66659ZM4.58329 18.3333H2.74996V16.4999H4.58329V18.3333ZM11.9166 18.3333H10.0833V16.4999H11.9166V18.3333ZM19.25 18.3333H17.4166V16.4999H19.25V18.3333Z" fill="#414141"/>
</svg>
